<svg width="24" height="24" viewBox="0 0 24 24" fill="none" xmlns="http://www.w3.org/2000/svg">
<path d="M11.8834 3.00722L12 3.00049C12.5128 3.00049 12.9355 3.38653 12.9933 3.88387L13 4.00049V11.0005H20C20.5128 11.0005 20.9355 11.3865 20.9933 11.8839L21 12.0005C21 12.5133 20.614 12.936 20.1166 12.9938L20 13.0005H13V20.0005C13 20.5133 12.614 20.936 12.1166 20.9938L12 21.0005C11.4872 21.0005 11.0645 20.6144 11.0067 20.1171L11 20.0005V13.0005H4C3.48716 13.0005 3.06449 12.6144 3.00673 12.1171L3 12.0005C3 11.4877 3.38604 11.065 3.88338 11.0072L4 11.0005H11V4.00049C11 3.48765 11.386 3.06498 11.8834 3.00722L12 3.00049L11.8834 3.00722Z" fill="#171717"/>
</svg>
