<svg width="272" height="180" viewBox="0 0 272 180" fill="none" xmlns="http://www.w3.org/2000/svg">
<path d="M0.724765 179.274V135.724H56.5384V179.274H0.724765Z" fill="#079F5A" stroke="#171717" stroke-width="1.44953"/>
<path d="M72.3039 179.275V90.7248H128.118V179.275H72.3039Z" fill="#079F5A" stroke="#171717" stroke-width="1.44953"/>
<path d="M143.882 179.276V45.7257H199.696V179.276H143.882Z" fill="#079F5A" stroke="#171717" stroke-width="1.44953"/>
<path d="M215.462 179.276V0.725497H271.275V179.276H215.462Z" fill="#079F5A" stroke="#171717" stroke-width="1.44953"/>
<path fill-rule="evenodd" clip-rule="evenodd" d="M198.551 7.04587C199.625 8.45169 201.611 8.8782 203.185 7.97137C204.893 6.98704 205.481 4.79762 204.495 3.09271C203.509 1.3878 201.315 0.801151 199.606 1.78548C198.189 2.60162 197.543 4.2462 197.926 5.75618L1.30299 119.038L2.01878 120.275L198.551 7.04587ZM199.677 5.86872C199.13 4.92327 199.456 3.70904 200.403 3.16318C201.351 2.61733 202.567 2.94268 203.114 3.88813C203.661 4.83358 203.335 6.04782 202.388 6.59367C201.44 7.13952 200.224 6.81417 199.677 5.86872Z" fill="#171717"/>
</svg>
