<svg width="453" height="440" viewBox="0 0 453 440" fill="none" xmlns="http://www.w3.org/2000/svg">
<path d="M433.738 420H39.262C28.6404 420 20 411.271 20 400.54V19.4604C20.0027 8.72941 28.6431 0 39.262 0H433.738C444.36 0 453 8.72941 453 19.4604V400.54C453 411.268 444.36 420 433.738 420ZM39.262 2.19057C29.8383 2.19057 22.1682 9.93696 22.1682 19.4604V400.54C22.1682 410.06 29.8356 417.809 39.262 417.809H433.738C443.164 417.809 450.832 410.063 450.832 400.54V19.4604C450.832 9.93969 443.164 2.19057 433.738 2.19057H39.262V2.19057Z" fill="#079F5A"/>
<path d="M19.4318 21.0952H413.568C423.696 21.0952 431.906 29.3181 431.906 39.4604V420.54C431.906 430.682 423.696 438.905 413.568 438.905H19.4318C9.30447 438.905 1.09375 430.682 1.09375 420.54V39.4604C1.09375 29.3181 9.30447 21.0952 19.4318 21.0952Z" fill="white"/>
<path d="M413.568 440H19.4318C8.71654 440 0 431.271 0 420.54V39.4604C0 28.7294 8.71654 20 19.4318 20H413.568C424.283 20 433 28.7294 433 39.4604V420.54C432.997 431.271 424.281 440 413.568 440ZM19.4318 22.1906C9.92504 22.1906 2.18734 29.937 2.18734 39.4604V420.54C2.18734 430.06 9.92231 437.809 19.4318 437.809H413.568C423.075 437.809 430.813 430.063 430.813 420.54V39.4604C430.813 29.9397 423.078 22.1906 413.568 22.1906H19.4318V22.1906Z" fill="#171717"/>
<path d="M40.4327 253.002C41.1217 273.988 54.038 293.955 72.7916 303.3L66.8147 315.083C43.8696 303.645 28.0989 279.237 27.2485 253.561L40.4327 253.002Z" fill="#079F5A"/>
<path d="M66.8147 316.178C66.6507 316.178 66.4839 316.14 66.3281 316.063C54.8801 310.359 45.0261 301.433 37.827 290.256C30.6143 279.056 26.5787 266.378 26.1549 253.596C26.1357 252.997 26.6033 252.49 27.202 252.466L40.3862 251.907C40.6761 251.893 40.9631 252 41.1764 252.197C41.3897 252.394 41.5154 252.671 41.5264 252.964C41.8572 263.049 45.048 273.062 50.7569 281.92C56.4522 290.759 64.2419 297.813 73.2783 302.317C73.5381 302.449 73.7377 302.676 73.8306 302.953C73.9209 303.229 73.899 303.533 73.7677 303.793L67.7908 315.576C67.5994 315.959 67.2139 316.178 66.8147 316.178ZM28.3887 254.607C28.9847 266.625 32.8727 278.517 39.6671 289.067C46.4479 299.598 55.6538 308.065 66.3363 313.61L71.3234 303.78C62.3526 299.086 54.6231 291.959 48.9196 283.112C43.2052 274.242 39.9214 264.251 39.3883 254.144L28.3887 254.607Z" fill="#171717"/>
<path d="M152.578 223.895C130.182 179.742 67.6382 180.418 46.082 224.927L34.1665 219.254C60.5786 164.791 136.96 164.019 164.376 217.975L152.578 223.895Z" fill="#079F5A"/>
<path d="M46.079 226.023C45.9205 226.023 45.7619 225.99 45.6115 225.916L33.696 220.242C33.4335 220.117 33.2312 219.892 33.1327 219.615C33.0343 219.339 33.0534 219.038 33.1819 218.775C39.5498 205.645 49.2561 194.846 61.251 187.54C72.5212 180.678 85.5496 176.984 98.9306 176.858C112.287 176.732 125.373 180.177 136.75 186.814C148.859 193.882 158.749 204.484 165.352 217.474C165.483 217.734 165.508 218.035 165.415 218.312C165.325 218.589 165.125 218.819 164.865 218.95L153.067 224.87C152.531 225.141 151.875 224.925 151.602 224.388C146.385 214.103 138.568 205.714 128.996 200.128C120.003 194.878 109.649 192.157 99.081 192.255C88.4861 192.351 78.1755 195.273 69.2594 200.7C59.7718 206.475 52.097 215.018 47.0661 225.404C46.8774 225.796 46.4864 226.023 46.079 226.023ZM35.6372 218.742L45.5787 223.476C50.7955 213.148 58.5742 204.643 68.1219 198.83C77.3744 193.2 88.0732 190.169 99.0618 190.067C110.026 189.972 120.766 192.792 130.097 198.238C139.733 203.863 147.651 212.211 153.054 222.433L162.894 217.493C156.49 205.325 147.088 195.388 135.648 188.709C124.613 182.269 111.926 178.926 98.9497 179.049C85.9624 179.169 73.3196 182.754 62.3856 189.41C51.0525 196.313 41.8219 206.439 35.6372 218.742Z" fill="#171717"/>
<path d="M161.778 189.804C147.601 175.073 128.038 165.741 107.707 163.873L108.94 150.716C132.323 152.849 154.932 163.638 171.238 180.593L161.778 189.804Z" fill="#079F5A"/>
<path d="M161.778 190.9C161.773 190.9 161.767 190.9 161.762 190.9C161.472 190.894 161.193 190.774 160.991 190.566C147.106 176.138 127.65 166.806 107.609 164.966C107.319 164.939 107.054 164.799 106.868 164.575C106.682 164.35 106.594 164.062 106.622 163.772L107.855 150.615C107.912 150.015 108.443 149.572 109.044 149.627C132.684 151.784 155.643 162.795 172.028 179.832C172.447 180.267 172.436 180.957 172.004 181.376L162.544 190.588C162.339 190.787 162.062 190.9 161.778 190.9ZM108.899 162.891C128.703 164.974 147.867 174.161 161.797 188.257L169.691 180.571C153.969 164.607 132.306 154.219 109.927 151.913L108.899 162.891Z" fill="#171717"/>
<path d="M182.76 275.275C188.598 255.683 187.326 234.046 179.009 215.349L191.077 210.01C200.658 231.543 202.137 256.477 195.406 279.045L182.76 275.275Z" fill="#079F5A"/>
<path d="M195.408 280.138C195.305 280.138 195.201 280.124 195.097 280.091L182.448 276.323C182.17 276.241 181.937 276.05 181.798 275.795C181.661 275.54 181.628 275.239 181.713 274.96C184.589 265.305 185.729 255.239 185.103 245.042C184.472 234.793 182.085 224.952 178.011 215.793C177.893 215.527 177.885 215.226 177.989 214.952C178.093 214.681 178.301 214.462 178.569 214.344L190.637 209.005C191.19 208.761 191.832 209.01 192.078 209.56C196.888 220.371 199.704 231.981 200.453 244.067C201.197 256.096 199.851 267.969 196.458 279.352C196.313 279.831 195.879 280.138 195.408 280.138ZM184.114 274.535L194.665 277.679C197.76 266.863 198.971 255.609 198.266 244.207C197.557 232.753 194.952 221.74 190.514 211.455L180.447 215.91C184.36 225.02 186.659 234.771 187.282 244.908C187.906 254.993 186.84 264.954 184.114 274.535Z" fill="#171717"/>
<path d="M95.1029 309.53C114.942 311.252 135.126 301.983 146.978 285.998L157.524 293.941C143.033 313.492 118.352 324.795 94.0967 322.706L95.1029 309.53Z" fill="#079F5A"/>
<path d="M99.8682 324.051C97.9078 324.051 95.9528 323.968 94.0034 323.799C93.4046 323.747 92.9617 323.224 93.0054 322.624L94.0116 309.448C94.0335 309.157 94.1702 308.886 94.3944 308.697C94.6186 308.508 94.9057 308.415 95.1955 308.44C104.719 309.267 114.534 307.525 123.582 303.41C132.594 299.308 140.38 293.062 146.1 285.349C146.273 285.116 146.532 284.96 146.822 284.919C147.109 284.878 147.405 284.952 147.637 285.127L158.183 293.07C158.664 293.432 158.762 294.114 158.404 294.598C151.169 304.36 141.321 312.257 129.925 317.44C120.333 321.797 110.05 324.051 99.8682 324.051ZM95.272 321.698C106.622 322.487 118.266 320.332 129.02 315.442C139.738 310.568 149.042 303.221 155.993 294.158L147.194 287.531C141.321 295.138 133.493 301.304 124.489 305.403C115.448 309.519 105.662 311.345 96.1114 310.707L95.272 321.698Z" fill="#171717"/>
<path d="M158.719 246.677C158.574 244.755 158.36 242.841 158.087 240.932L171.115 238.835C171.391 240.579 171.78 244.106 171.889 245.867L158.719 246.677Z" fill="#079F5A"/>
<path d="M158.716 247.772C158.147 247.772 157.669 247.334 157.625 246.759C157.488 244.922 157.278 243.013 157.001 241.088C156.917 240.497 157.321 239.947 157.909 239.851L170.938 237.753C171.225 237.707 171.517 237.778 171.752 237.948C171.987 238.117 172.146 238.375 172.19 238.662C172.474 240.453 172.862 243.988 172.974 245.798C172.994 246.088 172.895 246.373 172.704 246.592C172.512 246.811 172.242 246.943 171.952 246.959L158.781 247.767C158.762 247.772 158.74 247.772 158.716 247.772ZM159.315 241.844C159.479 243.085 159.613 244.311 159.719 245.519L170.711 244.845C170.585 243.413 170.377 241.521 170.188 240.097L159.315 241.844Z" fill="#171717"/>
<path d="M87.4555 308.454C89.3448 308.84 91.2532 309.155 93.1836 309.352L91.7591 322.49C89.4104 322.246 87.0809 321.863 84.7705 321.392L87.4555 308.454Z" fill="#079F5A"/>
<path d="M91.7589 323.585C91.7206 323.585 91.6823 323.582 91.644 323.58C89.3965 323.347 87.0752 322.98 84.5516 322.465C84.2672 322.408 84.0157 322.238 83.8571 321.994C83.6985 321.75 83.6411 321.455 83.6985 321.17L86.3835 308.232C86.5065 307.64 87.0807 307.263 87.6713 307.38C89.7028 307.794 91.5428 308.084 93.2927 308.265C93.5825 308.295 93.8478 308.44 94.0309 308.665C94.2141 308.892 94.2989 309.182 94.2688 309.472L92.8443 322.61C92.7842 323.169 92.3112 323.585 91.7589 323.585ZM86.0663 320.532C87.715 320.847 89.2735 321.093 90.7909 321.28L91.9803 310.318C90.8074 310.171 89.5934 309.979 88.3083 309.738L86.0663 320.532Z" fill="#171717"/>
<path d="M158.104 259.552C158.388 257.638 158.609 255.705 158.711 253.766L171.884 254.525C171.761 256.885 171.493 259.237 171.143 261.573L158.104 259.552Z" fill="#079F5A"/>
<path d="M171.142 262.668C171.088 262.668 171.03 262.662 170.976 262.654L157.936 260.633C157.343 260.54 156.933 259.984 157.023 259.39C157.335 257.29 157.532 255.434 157.619 253.708C157.633 253.418 157.764 253.144 157.98 252.95C158.196 252.756 158.48 252.654 158.773 252.671L171.946 253.429C172.548 253.465 173.007 253.977 172.974 254.579C172.857 256.8 172.613 259.141 172.222 261.734C172.179 262.022 172.023 262.282 171.788 262.454C171.602 262.594 171.375 262.668 171.142 262.668ZM159.339 258.634L170.218 260.321C170.451 258.637 170.617 257.063 170.724 255.554L159.733 254.921C159.648 256.088 159.517 257.317 159.339 258.634Z" fill="#171717"/>
<path d="M154.779 271.945C155.471 270.209 156.121 268.27 156.602 266.469L169.311 270.028C168.718 272.235 167.919 274.609 167.077 276.737L154.779 271.945Z" fill="#079F5A"/>
<path d="M167.077 277.832C166.946 277.832 166.812 277.808 166.68 277.758L154.382 272.966C154.111 272.86 153.893 272.652 153.775 272.383C153.658 272.115 153.655 271.811 153.761 271.54C154.45 269.807 155.085 267.903 155.544 266.184C155.621 265.902 155.804 265.661 156.058 265.516C156.312 265.371 156.613 265.332 156.895 265.412L169.603 268.971C170.18 269.133 170.522 269.73 170.363 270.31C169.775 272.498 168.969 274.921 168.091 277.137C167.924 277.569 167.512 277.832 167.077 277.832ZM156.192 271.321L166.451 275.319C167.011 273.823 167.531 272.268 167.96 270.787L157.36 267.816C157.021 268.969 156.621 270.165 156.192 271.321Z" fill="#171717"/>
<path d="M50.511 178.731C48.269 180.306 45.8574 182.108 43.774 183.866L35.2871 173.748C37.6795 171.727 40.4629 169.643 43.0412 167.839L50.511 178.731Z" fill="#079F5A"/>
<path d="M43.7741 184.961C43.7441 184.961 43.7112 184.961 43.6812 184.958C43.3913 184.933 43.1234 184.794 42.9375 184.572L34.4506 174.454C34.0624 173.991 34.1225 173.301 34.5818 172.913C37.3707 170.558 40.381 168.367 42.4152 166.943C42.6531 166.776 42.9511 166.711 43.2382 166.763C43.5253 166.815 43.7796 166.979 43.9437 167.22L51.4134 178.115C51.7524 178.611 51.6294 179.287 51.14 179.632C48.6218 181.398 46.3197 183.153 44.4823 184.706C44.2827 184.87 44.0311 184.961 43.7741 184.961ZM36.8321 173.885L43.9136 182.327C45.6853 180.878 47.5227 179.517 48.9991 178.46L42.768 169.372C41.07 170.582 38.921 172.173 36.8321 173.885Z" fill="#171717"/>
<path d="M67.0664 169.832C64.5208 170.837 61.7976 172.118 59.3833 173.397L53.2588 161.691C56.0504 160.215 59.1919 158.742 62.112 157.584L67.0664 169.832Z" fill="#079F5A"/>
<path d="M59.3833 174.492C59.2739 174.492 59.1646 174.476 59.0579 174.443C58.7791 174.355 58.5494 174.164 58.4127 173.906L52.2881 162.2C52.0092 161.666 52.2143 161.004 52.7475 160.722C55.6976 159.164 58.8802 157.688 61.7074 156.565C62.2651 156.343 62.8967 156.614 63.1236 157.173L68.078 169.421C68.1873 169.692 68.1846 169.996 68.0698 170.264C67.9549 170.533 67.7362 170.744 67.4655 170.85C65.0841 171.792 62.3936 173.041 59.8919 174.364C59.7333 174.448 59.5583 174.492 59.3833 174.492ZM54.7352 162.157L59.8454 171.921C61.773 170.933 63.7744 170.004 65.6418 169.229L61.5078 159.01C59.3286 159.914 56.9854 161.001 54.7352 162.157Z" fill="#171717"/>
<path d="M85.153 164.693C82.4544 165.166 79.507 165.788 76.874 166.508L73.418 153.753C76.4502 152.924 79.8542 152.204 82.963 151.659L85.153 164.693Z" fill="#079F5A"/>
<path d="M76.8737 167.606C76.6851 167.606 76.4964 167.557 76.3296 167.461C76.0781 167.316 75.8921 167.077 75.8183 166.798L72.3623 154.043C72.2037 153.46 72.5483 152.861 73.1306 152.699C76.7288 151.713 80.3625 151.004 82.7768 150.582C83.0639 150.533 83.3592 150.599 83.597 150.769C83.8349 150.936 83.9962 151.193 84.0427 151.48L86.23 164.512C86.3285 165.106 85.932 165.667 85.3414 165.771C83.2771 166.133 80.1793 166.738 77.1635 167.565C77.0678 167.592 76.9721 167.606 76.8737 167.606ZM74.7629 154.531L77.6447 165.172C79.9059 164.591 82.1343 164.134 83.8951 163.808L82.0686 152.934C80.0372 153.31 77.4233 153.844 74.7629 154.531Z" fill="#171717"/>
<path d="M411.392 68.8924H21.6083C21.0041 68.8924 20.5146 68.4025 20.5146 67.7975C20.5146 67.1926 21.0041 66.7026 21.6083 66.7026H411.392C411.996 66.7026 412.486 67.1926 412.486 67.7975C412.486 68.4025 411.996 68.8924 411.392 68.8924Z" fill="#079F5A"/>
<path d="M332.563 373.193H272.261V383.524H332.563V373.193Z" fill="white"/>
<path d="M332.563 384.62H272.261C271.656 384.62 271.167 384.129 271.167 383.524V373.193C271.167 372.588 271.656 372.098 272.261 372.098H332.563C333.167 372.098 333.657 372.588 333.657 373.193V383.524C333.657 384.129 333.167 384.62 332.563 384.62ZM273.354 382.429H331.469V374.288H273.354V382.429Z" fill="#079F5A"/>
<path d="M311.223 390.512H272.261V400.843H311.223V390.512Z" fill="white"/>
<path d="M311.22 401.939H272.261C271.656 401.939 271.167 401.449 271.167 400.844V390.512C271.167 389.907 271.656 389.417 272.261 389.417H311.223C311.827 389.417 312.316 389.907 312.316 390.512V400.844C312.314 401.449 311.824 401.939 311.22 401.939ZM273.354 399.748H310.129V391.608H273.354V399.748Z" fill="#079F5A"/>
<path d="M259.033 133.797H203.059C202.791 133.797 202.531 133.698 202.331 133.518L168.053 102.885H71.4628C70.8586 102.885 70.3691 102.395 70.3691 101.79C70.3691 101.185 70.8586 100.695 71.4628 100.695H168.471C168.739 100.695 168.999 100.793 169.199 100.974L203.477 131.609H259.035C259.64 131.609 260.129 132.099 260.129 132.704C260.129 133.31 259.637 133.797 259.033 133.797Z" fill="#079F5A"/>
<path d="M262.85 136.721C264.958 136.721 266.667 135.01 266.667 132.899C266.667 130.788 264.958 129.076 262.85 129.076C260.742 129.076 259.033 130.788 259.033 132.899C259.033 135.01 260.742 136.721 262.85 136.721Z" fill="white"/>
<path d="M262.85 137.817C260.143 137.817 257.939 135.61 257.939 132.899C257.939 130.188 260.143 127.981 262.85 127.981C265.556 127.981 267.76 130.188 267.76 132.899C267.76 135.61 265.556 137.817 262.85 137.817ZM262.85 130.172C261.348 130.172 260.126 131.396 260.126 132.899C260.126 134.402 261.348 135.626 262.85 135.626C264.351 135.626 265.573 134.402 265.573 132.899C265.573 131.396 264.351 130.172 262.85 130.172Z" fill="#079F5A"/>
<path d="M157.409 126.803H71.4628C70.8586 126.803 70.3691 126.313 70.3691 125.708C70.3691 125.103 70.8586 124.613 71.4628 124.613H157.412C158.016 124.613 158.505 125.103 158.505 125.708C158.505 126.313 158.013 126.803 157.409 126.803Z" fill="#079F5A"/>
<path d="M161.333 129.531C163.441 129.531 165.149 127.819 165.149 125.708C165.149 123.597 163.441 121.886 161.333 121.886C159.225 121.886 157.516 123.597 157.516 125.708C157.516 127.819 159.225 129.531 161.333 129.531Z" fill="white"/>
<path d="M161.332 130.626C158.626 130.626 156.422 128.419 156.422 125.708C156.422 122.998 158.626 120.791 161.332 120.791C164.039 120.791 166.243 122.998 166.243 125.708C166.243 128.419 164.039 130.626 161.332 130.626ZM161.332 122.981C159.831 122.981 158.609 124.205 158.609 125.708C158.609 127.212 159.831 128.436 161.332 128.436C162.833 128.436 164.056 127.212 164.056 125.708C164.056 124.205 162.833 122.981 161.332 122.981Z" fill="#079F5A"/>
<path d="M380.271 156.601C380.066 156.601 379.858 156.544 379.672 156.423L345.123 133.797H299.886C299.607 133.797 299.337 133.691 299.134 133.496L275.158 110.739H236.267C235.663 110.739 235.174 110.249 235.174 109.644C235.174 109.038 235.663 108.548 236.267 108.548H275.596C275.875 108.548 276.145 108.655 276.348 108.85L300.324 131.607H345.451C345.664 131.607 345.872 131.67 346.05 131.785L380.872 154.589C381.378 154.92 381.52 155.599 381.19 156.106C380.976 156.426 380.626 156.601 380.271 156.601Z" fill="#079F5A"/>
<path d="M236.265 113.466C238.373 113.466 240.082 111.754 240.082 109.643C240.082 107.532 238.373 105.821 236.265 105.821C234.157 105.821 232.448 107.532 232.448 109.643C232.448 111.754 234.157 113.466 236.265 113.466Z" fill="white"/>
<path d="M236.265 114.561C233.558 114.561 231.354 112.354 231.354 109.643C231.354 106.933 233.558 104.726 236.265 104.726C238.972 104.726 241.176 106.933 241.176 109.643C241.176 112.354 238.972 114.561 236.265 114.561ZM236.265 106.916C234.764 106.916 233.542 108.14 233.542 109.643C233.542 111.147 234.764 112.371 236.265 112.371C237.766 112.371 238.988 111.147 238.988 109.643C238.988 108.14 237.766 106.916 236.265 106.916Z" fill="#079F5A"/>
<path d="M303.285 356.504C303.053 356.504 302.818 356.43 302.618 356.276L279.616 338.497H189.156C188.934 338.497 188.718 338.432 188.538 338.306L156.477 316.282C155.979 315.94 155.851 315.258 156.192 314.76C156.534 314.261 157.215 314.133 157.713 314.475L189.492 336.307H279.988C280.228 336.307 280.463 336.386 280.655 336.534L303.953 354.543C304.431 354.913 304.519 355.6 304.149 356.079C303.936 356.359 303.614 356.504 303.285 356.504Z" fill="#079F5A"/>
<path d="M303.288 359.231C305.396 359.231 307.105 357.52 307.105 355.408C307.105 353.297 305.396 351.586 303.288 351.586C301.18 351.586 299.471 353.297 299.471 355.408C299.471 357.52 301.18 359.231 303.288 359.231Z" fill="white"/>
<path d="M303.288 360.326C300.581 360.326 298.377 358.119 298.377 355.409C298.377 352.698 300.581 350.491 303.288 350.491C305.995 350.491 308.199 352.698 308.199 355.409C308.199 358.119 305.995 360.326 303.288 360.326ZM303.288 352.684C301.787 352.684 300.565 353.908 300.565 355.411C300.565 356.915 301.787 358.139 303.288 358.139C304.789 358.139 306.011 356.915 306.011 355.411C306.011 353.908 304.789 352.684 303.288 352.684Z" fill="#079F5A"/>
<path d="M134.882 384.62H93.5771C92.9728 384.62 92.4834 384.13 92.4834 383.524C92.4834 382.919 92.9728 382.429 93.5771 382.429H134.592L176.603 358.281C176.77 358.185 176.956 358.136 177.147 358.136H272.261C272.865 358.136 273.354 358.626 273.354 359.231C273.354 359.836 272.865 360.326 272.261 360.326H177.437L135.426 384.475C135.262 384.568 135.074 384.62 134.882 384.62Z" fill="#079F5A"/>
<path d="M88.855 387.347C90.963 387.347 92.6719 385.635 92.6719 383.524C92.6719 381.413 90.963 379.702 88.855 379.702C86.747 379.702 85.0381 381.413 85.0381 383.524C85.0381 385.635 86.747 387.347 88.855 387.347Z" fill="white"/>
<path d="M88.8549 388.442C86.1481 388.442 83.9443 386.235 83.9443 383.524C83.9443 380.813 86.1481 378.606 88.8549 378.606C91.5617 378.606 93.7655 380.813 93.7655 383.524C93.7655 386.235 91.5617 388.442 88.8549 388.442ZM88.8549 380.797C87.3539 380.797 86.1317 382.021 86.1317 383.524C86.1317 385.028 87.3539 386.252 88.8549 386.252C90.356 386.252 91.5781 385.028 91.5781 383.524C91.5781 382.021 90.356 380.797 88.8549 380.797Z" fill="#079F5A"/>
<path d="M26.7566 47.6175C26.7566 49.0413 25.6028 50.1969 24.1811 50.1969C22.7593 50.1969 21.6055 49.0413 21.6055 47.6175C21.6055 46.1936 22.7593 45.0381 24.1811 45.0381C25.6028 45.0381 26.7566 46.1936 26.7566 47.6175ZM45.699 45.0381C44.2772 45.0381 43.1234 46.1936 43.1234 47.6175C43.1234 49.0413 44.2772 50.1969 45.699 50.1969C47.1208 50.1969 48.2746 49.0413 48.2746 47.6175C48.2746 46.1936 47.1208 45.0381 45.699 45.0381ZM67.2169 45.0381C65.7952 45.0381 64.6413 46.1936 64.6413 47.6175C64.6413 49.0413 65.7952 50.1969 67.2169 50.1969C68.6387 50.1969 69.7925 49.0413 69.7925 47.6175C69.7925 46.1936 68.6387 45.0381 67.2169 45.0381Z" fill="white"/>
<path d="M67.2169 51.2922C65.1936 51.2922 63.5476 49.6438 63.5476 47.6175C63.5476 45.5913 65.1936 43.9429 67.2169 43.9429C69.2402 43.9429 70.8861 45.5913 70.8861 47.6175C70.8861 49.6438 69.2402 51.2922 67.2169 51.2922ZM67.2169 46.1334C66.3993 46.1334 65.7349 46.7988 65.7349 47.6175C65.7349 48.4363 66.3993 49.1017 67.2169 49.1017C68.0344 49.1017 68.6988 48.4363 68.6988 47.6175C68.6988 46.7988 68.0344 46.1334 67.2169 46.1334ZM45.6989 51.2922C43.6756 51.2922 42.0297 49.6438 42.0297 47.6175C42.0297 45.5913 43.6756 43.9429 45.6989 43.9429C47.7222 43.9429 49.3682 45.5913 49.3682 47.6175C49.3682 49.6438 47.7222 51.2922 45.6989 51.2922ZM45.6989 46.1334C44.8814 46.1334 44.217 46.7988 44.217 47.6175C44.217 48.4363 44.8814 49.1017 45.6989 49.1017C46.5164 49.1017 47.1808 48.4363 47.1808 47.6175C47.1808 46.7988 46.5164 46.1334 45.6989 46.1334ZM24.181 51.2922C22.1577 51.2922 20.5117 49.6438 20.5117 47.6175C20.5117 45.5913 22.1577 43.9429 24.181 43.9429C26.2043 43.9429 27.8502 45.5913 27.8502 47.6175C27.8502 49.6438 26.2043 51.2922 24.181 51.2922ZM24.181 46.1334C23.3635 46.1334 22.6991 46.7988 22.6991 47.6175C22.6991 48.4363 23.3635 49.1017 24.181 49.1017C24.9985 49.1017 25.6629 48.4363 25.6629 47.6175C25.6629 46.7988 24.9985 46.1334 24.181 46.1334Z" fill="#079F5A"/>
<path d="M338.915 262.879C350.155 250.146 353.633 231.208 347.781 215.272L357.835 211.663C364.993 231.162 360.728 254.305 346.98 269.888L338.915 262.879Z" fill="#079F5A"/>
<path d="M346.983 270.984C346.729 270.984 346.475 270.896 346.267 270.715L338.198 263.706C337.977 263.514 337.843 263.243 337.824 262.95C337.805 262.657 337.903 262.372 338.094 262.153C343.47 256.063 347.131 248.429 348.681 240.075C350.229 231.74 349.561 223.292 346.753 215.647C346.652 215.373 346.666 215.07 346.789 214.807C346.912 214.541 347.136 214.338 347.41 214.24L357.463 210.631C358.029 210.428 358.653 210.719 358.858 211.285C362.442 221.047 363.292 231.822 361.318 242.443C359.342 253.084 354.666 262.827 347.798 270.611C347.587 270.858 347.284 270.984 346.983 270.984ZM340.457 262.769L346.874 268.344C353.094 260.995 357.34 251.926 359.175 242.046C361.007 232.183 360.315 222.186 357.173 213.068L349.176 215.938C351.806 223.673 352.38 232.134 350.833 240.48C349.28 248.843 345.701 256.523 340.457 262.769Z" fill="#171717"/>
<path d="M256.769 217.597C245.447 256.044 282.631 290.452 320.013 276.257L323.876 286.23C278.112 303.582 232.733 261.528 246.54 214.516L256.769 217.597Z" fill="#079F5A"/>
<path d="M302.471 291.304C298.375 291.304 294.298 290.88 290.295 290.022C279.818 287.78 270.068 282.687 262.098 275.288C254.136 267.898 248.331 258.56 245.31 248.287C242.095 237.35 242.158 225.565 245.491 214.207C245.573 213.928 245.764 213.692 246.018 213.553C246.275 213.413 246.576 213.383 246.855 213.468L257.083 216.548C257.66 216.721 257.988 217.329 257.816 217.906C255.191 226.822 255.137 236.069 257.658 244.648C260.028 252.703 264.583 260.031 270.834 265.836C277.095 271.649 284.751 275.652 292.972 277.413C301.722 279.286 310.936 278.533 319.625 275.236C320.188 275.023 320.814 275.305 321.033 275.863L324.896 285.836C325.003 286.107 324.995 286.411 324.875 286.679C324.757 286.945 324.535 287.153 324.262 287.257C317.167 289.943 309.79 291.304 302.471 291.304ZM247.29 215.886C244.372 226.51 244.411 237.474 247.41 247.668C250.319 257.564 255.913 266.559 263.588 273.681C271.271 280.811 280.666 285.721 290.758 287.881C301.15 290.105 312.087 289.311 322.458 285.587L319.384 277.657C310.602 280.784 301.339 281.444 292.518 279.554C283.911 277.712 275.9 273.522 269.352 267.44C262.812 261.37 258.043 253.7 255.563 245.266C253.02 236.619 252.977 227.331 255.424 218.336L247.29 215.886Z" fill="#171717"/>
<path d="M232.435 232.54C232.601 249.097 238.939 265.477 249.865 277.89L241.837 284.946C229.26 270.677 221.941 251.745 221.755 232.696L232.435 232.54Z" fill="#079F5A"/>
<path d="M241.84 286.041C241.537 286.041 241.236 285.916 241.02 285.672C228.273 271.209 220.853 251.904 220.664 232.707C220.659 232.104 221.14 231.609 221.741 231.6L232.421 231.444C232.711 231.442 232.993 231.551 233.2 231.757C233.408 231.959 233.528 232.238 233.531 232.529C233.695 248.698 239.948 264.966 250.688 277.167C250.879 277.386 250.978 277.671 250.959 277.961C250.94 278.251 250.808 278.522 250.59 278.714L242.562 285.77C242.354 285.951 242.097 286.041 241.84 286.041ZM222.868 233.775C223.308 251.729 230.215 269.697 241.944 283.396L248.328 277.783C237.925 265.573 231.787 249.607 231.363 233.649L222.868 233.775Z" fill="#171717"/>
<path d="M267.517 170.566C253.209 178.846 241.952 192.288 236.473 207.92L226.406 204.347C232.716 186.343 245.682 170.848 262.163 161.311L267.517 170.566Z" fill="#079F5A"/>
<path d="M236.47 209.013C236.347 209.013 236.224 208.991 236.104 208.95L226.037 205.376C225.468 205.174 225.17 204.55 225.37 203.983C228.547 194.922 233.342 186.499 239.626 178.95C245.879 171.436 253.277 165.185 261.614 160.36C262.136 160.059 262.806 160.237 263.107 160.76L268.457 170.015C268.602 170.267 268.643 170.566 268.567 170.848C268.493 171.13 268.31 171.368 268.058 171.513C253.969 179.667 242.83 193.068 237.498 208.282C237.403 208.556 237.2 208.78 236.938 208.906C236.796 208.977 236.634 209.013 236.47 209.013ZM227.806 203.679L235.811 206.521C241.324 191.59 252.255 178.441 266.024 170.171L261.767 162.808C246.272 172.074 233.977 186.872 227.806 203.679Z" fill="#171717"/>
<path d="M338.108 199.188C327.39 187.135 310.367 181.354 294.522 184.166L292.723 173.624C312.1 170.185 332.896 177.266 346.009 191.995L338.108 199.188Z" fill="#079F5A"/>
<path d="M338.108 200.284C338.089 200.284 338.069 200.284 338.05 200.281C337.758 200.264 337.484 200.133 337.29 199.917C326.919 188.255 310.208 182.496 294.711 185.245C294.424 185.297 294.129 185.232 293.891 185.062C293.653 184.892 293.491 184.637 293.442 184.35L291.643 173.808C291.542 173.214 291.938 172.65 292.532 172.546C302.241 170.82 312.456 171.658 322.069 174.961C331.718 178.277 340.281 183.915 346.824 191.267C347.223 191.716 347.188 192.403 346.745 192.806L338.84 199.999C338.644 200.182 338.381 200.284 338.108 200.284ZM302.553 182.37C307.942 182.37 313.374 183.277 318.594 185.067C326.162 187.666 332.913 192.003 338.182 197.644L344.467 191.921C338.269 185.24 330.304 180.103 321.364 177.031C312.453 173.969 303.012 173.107 293.989 174.523L295.419 182.91C297.77 182.548 300.157 182.37 302.553 182.37Z" fill="#171717"/>
<path d="M265.794 200.773C264.812 201.986 263.877 203.229 262.978 204.505L254.146 198.49C254.953 197.309 256.681 195.02 257.594 193.919L265.794 200.773Z" fill="#079F5A"/>
<path d="M262.978 205.601C262.765 205.601 262.551 205.538 262.363 205.412L253.531 199.396C253.291 199.232 253.127 198.98 253.072 198.695C253.017 198.41 253.08 198.114 253.244 197.873C254.075 196.658 255.812 194.352 256.752 193.221C256.938 192.997 257.203 192.857 257.493 192.832C257.783 192.805 258.07 192.895 258.292 193.082L266.491 199.935C266.951 200.319 267.016 201.001 266.639 201.466C265.704 202.619 264.772 203.854 263.869 205.138C263.662 205.439 263.322 205.601 262.978 205.601ZM255.686 198.21L262.713 202.997C263.227 202.287 263.749 201.595 264.274 200.927L257.75 195.475C257.097 196.307 256.307 197.353 255.686 198.21Z" fill="#171717"/>
<path d="M342.012 204.079C341.112 202.8 340.166 201.551 339.141 200.363L347.27 193.424C348.517 194.876 349.676 196.398 350.772 197.959L342.012 204.079Z" fill="#079F5A"/>
<path d="M342.012 205.174C341.667 205.174 341.328 205.012 341.118 204.708C340.155 203.339 339.237 202.151 338.312 201.075C338.121 200.853 338.028 200.566 338.05 200.275C338.072 199.985 338.209 199.714 338.43 199.525L346.559 192.586C347.018 192.195 347.704 192.25 348.098 192.704C349.296 194.098 350.463 195.609 351.666 197.324C351.833 197.562 351.899 197.857 351.849 198.142C351.8 198.43 351.636 198.684 351.398 198.851L342.638 204.971C342.447 205.111 342.228 205.174 342.012 205.174ZM340.675 200.492C341.203 201.141 341.733 201.825 342.272 202.564L349.238 197.696C348.533 196.727 347.838 195.826 347.141 194.974L340.675 200.492Z" fill="#171717"/>
<path d="M273.299 193.539C272.069 194.508 270.866 195.521 269.731 196.606L262.401 188.827C263.784 187.507 265.244 186.269 266.748 185.089L273.299 193.539Z" fill="#079F5A"/>
<path d="M269.731 197.701C269.723 197.701 269.712 197.701 269.704 197.701C269.414 197.693 269.138 197.57 268.936 197.359L261.605 189.58C261.192 189.142 261.212 188.452 261.646 188.035C262.951 186.79 264.4 185.544 266.073 184.229C266.303 184.049 266.592 183.967 266.882 184.005C267.172 184.04 267.435 184.191 267.612 184.421L274.163 192.868C274.533 193.345 274.448 194.029 273.975 194.402C272.632 195.459 271.489 196.439 270.486 197.4C270.284 197.595 270.013 197.701 269.731 197.701ZM263.951 188.879L269.783 195.064C270.398 194.509 271.057 193.942 271.774 193.359L266.562 186.639C265.622 187.403 264.758 188.142 263.951 188.879Z" fill="#171717"/>
<path d="M282.134 188.095C280.764 188.733 279.304 189.511 278.021 190.305L272.518 181.137C274.09 180.171 275.878 179.215 277.554 178.432L282.134 188.095Z" fill="#079F5A"/>
<path d="M278.022 191.4C277.934 191.4 277.849 191.389 277.765 191.37C277.48 191.302 277.237 191.121 277.086 190.869L271.583 181.702C271.274 181.187 271.435 180.519 271.946 180.204C273.513 179.24 275.339 178.26 277.092 177.438C277.636 177.183 278.284 177.416 278.544 177.961L283.124 187.624C283.249 187.887 283.263 188.191 283.165 188.465C283.066 188.739 282.861 188.963 282.596 189.086C281.234 189.719 279.812 190.483 278.596 191.233C278.421 191.343 278.221 191.4 278.022 191.4ZM274.021 181.515L278.399 188.804C279.132 188.383 279.905 187.967 280.682 187.58L277.04 179.894C276.012 180.404 274.981 180.957 274.021 181.515Z" fill="#171717"/>
<path d="M291.772 300.978C293.965 301.301 296.385 301.583 298.586 301.706L297.965 312.385C295.436 312.243 292.642 311.92 290.121 311.548L291.772 300.978Z" fill="#079F5A"/>
<path d="M297.965 313.481C297.943 313.481 297.924 313.481 297.902 313.478C294.944 313.311 291.952 312.925 289.962 312.629C289.672 312.585 289.415 312.429 289.24 312.194C289.068 311.958 288.994 311.662 289.04 311.375L290.689 300.808C290.782 300.214 291.337 299.806 291.928 299.894C294.383 300.255 296.707 300.502 298.643 300.611C298.933 300.628 299.203 300.759 299.398 300.975C299.592 301.192 299.69 301.476 299.674 301.767L299.053 312.446C299.023 313.029 298.542 313.481 297.965 313.481ZM291.373 310.619C292.953 310.836 294.924 311.071 296.937 311.222L297.429 302.73C295.734 302.602 294.055 302.402 292.685 302.216L291.373 310.619Z" fill="#171717"/>
<path d="M277.092 297.002C279.148 297.826 281.461 298.587 283.591 299.182L280.701 309.477C278.237 308.79 275.574 307.911 273.212 306.966L277.092 297.002Z" fill="#079F5A"/>
<path d="M280.701 310.573C280.605 310.573 280.504 310.559 280.408 310.532C277.8 309.806 275.101 308.9 272.807 307.982C272.25 307.761 271.976 307.128 272.195 306.567L276.075 296.602C276.181 296.331 276.392 296.112 276.66 295.995C276.928 295.88 277.231 295.874 277.502 295.984C279.419 296.75 281.685 297.512 283.889 298.122C284.168 298.199 284.406 298.385 284.551 298.64C284.693 298.894 284.728 299.193 284.652 299.475L281.762 309.77C281.617 310.258 281.179 310.573 280.701 310.573ZM274.628 306.342C276.294 306.972 278.123 307.585 279.946 308.122L282.246 299.935C280.693 299.475 279.137 298.955 277.715 298.421L274.628 306.342Z" fill="#171717"/>
<path d="M263.596 289.963C265.447 291.187 267.528 292.46 269.475 293.501L264.433 302.928C262.188 301.729 259.785 300.259 257.655 298.848L263.596 289.963Z" fill="#079F5A"/>
<path d="M264.43 304.023C264.255 304.023 264.08 303.982 263.916 303.895C261.245 302.468 258.707 300.861 257.048 299.763C256.804 299.601 256.635 299.352 256.577 299.064C256.52 298.78 256.58 298.481 256.741 298.24L262.686 289.355C263.019 288.854 263.694 288.719 264.198 289.051C265.611 289.984 267.763 291.348 269.989 292.536C270.246 292.673 270.437 292.906 270.522 293.185C270.606 293.465 270.576 293.763 270.44 294.021L265.395 303.448C265.198 303.812 264.821 304.023 264.43 304.023ZM259.178 298.536C260.509 299.396 262.196 300.442 263.99 301.438L268.001 293.941C266.489 293.095 265.056 292.211 263.905 291.471L259.178 298.536Z" fill="#171717"/>
</svg>
