<svg width="24" height="269" viewBox="0 0 24 269" fill="none" xmlns="http://www.w3.org/2000/svg">
<path fill-rule="evenodd" clip-rule="evenodd" d="M0 12.067C0 18.033 4.333 22.994 10 24V15.333H7V12H10V9.333C10 6.333 11.933 4.667 14.667 4.667C15.533 4.667 16.467 4.8 17.333 4.933V8H15.8C14.333 8 14 8.733 14 9.667V12H17.2L16.667 15.333H14V24C19.667 22.994 24 18.034 24 12.067C24 5.43 18.6 0 12 0C5.4 0 0 5.43 0 12.067Z" fill="#777777"/>
<path d="M12 98C5.37321 98 0 103.373 0 110C0 116.627 5.37321 122 12 122C18.6268 122 24 116.627 24 110C24 103.373 18.6268 98 12 98ZM17.767 107.046C17.775 107.171 17.775 107.303 17.775 107.431C17.775 111.363 14.7804 115.893 9.30804 115.893C7.62054 115.893 6.05625 115.403 4.73839 114.559C4.97946 114.586 5.20982 114.596 5.45625 114.596C6.84911 114.596 8.12946 114.125 9.15 113.327C7.84286 113.3 6.74464 112.443 6.36964 111.264C6.82768 111.331 7.24018 111.331 7.71161 111.211C7.03855 111.074 6.43359 110.708 5.99951 110.176C5.56542 109.644 5.32898 108.978 5.33036 108.291V108.254C5.72411 108.476 6.1875 108.613 6.67232 108.631C6.26476 108.36 5.93051 107.992 5.69923 107.56C5.46794 107.128 5.34676 106.646 5.34643 106.156C5.34643 105.602 5.49107 105.096 5.75089 104.656C6.49795 105.576 7.43017 106.328 8.48696 106.864C9.54375 107.4 10.7014 107.707 11.8848 107.766C11.4643 105.744 12.975 104.107 14.7911 104.107C15.6482 104.107 16.4196 104.466 16.9634 105.045C17.6357 104.919 18.2786 104.667 18.8518 104.329C18.6295 105.018 18.1634 105.599 17.5446 105.966C18.1446 105.902 18.7232 105.736 19.2589 105.503C18.8545 106.097 18.3482 106.625 17.767 107.046Z" fill="#777777"/>
<path fill-rule="evenodd" clip-rule="evenodd" d="M24 208C24 214.627 18.627 220 12 220C5.373 220 0 214.627 0 208C0 201.373 5.373 196 12 196C18.627 196 24 201.373 24 208ZM12.43 204.859C11.263 205.344 8.93 206.349 5.432 207.873C4.864 208.099 4.566 208.32 4.539 208.536C4.493 208.902 4.951 209.046 5.573 209.241C5.658 209.268 5.746 209.295 5.836 209.325C6.449 209.524 7.273 209.757 7.701 209.766C8.09 209.774 8.524 209.614 9.003 209.286C12.271 207.079 13.958 205.964 14.064 205.94C14.139 205.923 14.243 205.901 14.313 205.964C14.383 206.026 14.376 206.144 14.369 206.176C14.323 206.369 12.529 208.038 11.599 208.902C11.309 209.171 11.104 209.362 11.062 209.406C10.968 209.503 10.872 209.596 10.78 209.685C10.21 210.233 9.784 210.645 10.804 211.317C11.294 211.64 11.686 211.907 12.077 212.173C12.504 212.464 12.93 212.754 13.482 213.116C13.622 213.208 13.756 213.303 13.887 213.396C14.384 213.751 14.831 214.069 15.383 214.019C15.703 213.989 16.035 213.688 16.203 212.789C16.6 210.663 17.382 206.059 17.563 204.161C17.574 204.003 17.5673 203.845 17.543 203.689C17.5285 203.563 17.4671 203.447 17.371 203.364C17.228 203.247 17.006 203.222 16.906 203.224C16.455 203.232 15.763 203.473 12.43 204.859Z" fill="#777777"/>
<path d="M11.9968 56.9983C9.79333 56.9983 7.99515 58.7965 7.99515 61C7.99515 63.2035 9.79333 65.0017 11.9968 65.0017C14.2002 65.0017 15.9984 63.2035 15.9984 61C15.9984 58.7965 14.2002 56.9983 11.9968 56.9983ZM23.9987 61C23.9987 59.3429 24.0137 57.7008 23.9206 56.0467C23.8275 54.1254 23.3893 52.4202 21.9843 51.0153C20.5764 49.6073 18.8743 49.172 16.953 49.0789C15.2959 48.9859 13.6539 49.0009 11.9998 49.0009C10.3427 49.0009 8.70061 48.9859 7.04652 49.0789C5.12526 49.172 3.42014 49.6103 2.01522 51.0153C0.607291 52.4232 0.172005 54.1254 0.0789442 56.0467C-0.014117 57.7038 0.000892919 59.3459 0.000892919 61C0.000892919 62.6541 -0.014117 64.2992 0.0789442 65.9533C0.172005 67.8746 0.610293 69.5798 2.01522 70.9847C3.42314 72.3927 5.12526 72.828 7.04652 72.9211C8.70361 73.0141 10.3457 72.9991 11.9998 72.9991C13.6569 72.9991 15.2989 73.0141 16.953 72.9211C18.8743 72.828 20.5794 72.3897 21.9843 70.9847C23.3923 69.5768 23.8275 67.8746 23.9206 65.9533C24.0167 64.2992 23.9987 62.6571 23.9987 61ZM11.9968 67.1572C8.58954 67.1572 5.83973 64.4073 5.83973 61C5.83973 57.5927 8.58954 54.8428 11.9968 54.8428C15.404 54.8428 18.1538 57.5927 18.1538 61C18.1538 64.4073 15.404 67.1572 11.9968 67.1572ZM18.406 56.0286C17.6105 56.0286 16.968 55.3862 16.968 54.5907C16.968 53.7951 17.6105 53.1527 18.406 53.1527C19.2015 53.1527 19.8439 53.7951 19.8439 54.5907C19.8442 54.7796 19.8071 54.9667 19.735 55.1412C19.6628 55.3158 19.5569 55.4744 19.4233 55.608C19.2897 55.7416 19.1311 55.8475 18.9565 55.9197C18.782 55.9918 18.5949 56.0289 18.406 56.0286Z" fill="#777777"/>
<path d="M14.0037 158.791L11.1963 157.481C10.9513 157.368 10.75 157.495 10.75 157.766V160.234C10.75 160.505 10.9513 160.633 11.1963 160.519L14.0025 159.209C14.2488 159.094 14.2487 158.906 14.0037 158.791ZM12 147C5.3725 147 0 152.373 0 159C0 165.628 5.3725 171 12 171C18.6275 171 24 165.628 24 159C24 152.373 18.6275 147 12 147ZM12 163.875C5.8575 163.875 5.75 163.321 5.75 159C5.75 154.679 5.8575 154.125 12 154.125C18.1425 154.125 18.25 154.679 18.25 159C18.25 163.321 18.1425 163.875 12 163.875Z" fill="#777777"/>
<path d="M22.2051 250.55C18.615 245 11.2852 243.35 5.60089 246.8C0.0661373 250.25 -1.72892 257.75 1.86119 263.3L2.16037 263.75L0.963664 268.25L5.4513 267.05L5.90006 267.35C7.8447 268.4 9.93893 269 12.0332 269C14.277 269 16.5208 268.4 18.4654 267.2C24.0002 263.6 25.6456 256.25 22.2051 250.55ZM19.0638 262.1C18.4654 263 17.7175 263.6 16.6704 263.75C16.072 263.75 15.3241 264.05 12.3323 262.85C9.78934 261.65 7.69511 259.7 6.19924 257.45C5.30171 256.4 4.85295 255.05 4.70336 253.7C4.70336 252.5 5.15212 251.45 5.90006 250.7C6.19924 250.4 6.49841 250.25 6.79759 250.25H7.54553C7.8447 250.25 8.14388 250.25 8.29347 250.85C8.59264 251.6 9.34058 253.4 9.34058 253.55C9.49017 253.7 9.49017 254 9.34058 254.15C9.49017 254.45 9.34058 254.75 9.19099 254.9C9.04141 255.05 8.89182 255.35 8.74223 255.5C8.44305 255.65 8.29347 255.95 8.44305 256.25C9.0414 257.15 9.78934 258.05 10.5373 258.8C11.4348 259.55 12.3323 260.15 13.3794 260.6C13.6786 260.75 13.9778 260.75 14.1274 260.45C14.277 260.15 15.0249 259.4 15.3241 259.1C15.6233 258.8 15.7729 258.8 16.072 258.95L18.4654 260.15C18.7646 260.3 19.0638 260.45 19.2134 260.6C19.363 261.05 19.363 261.65 19.0638 262.1Z" fill="#777777"/>
</svg>
