<svg width="380" height="252" viewBox="0 0 380 252" fill="none" xmlns="http://www.w3.org/2000/svg">
<path d="M1 190H79V251H1V190Z" fill="#079F5A" stroke="#171717" stroke-width="2"/>
<path d="M101 127H179V251H101V127Z" fill="#079F5A" stroke="#171717" stroke-width="2"/>
<path d="M201 64H279V251H201V64Z" fill="#079F5A" stroke="#171717" stroke-width="2"/>
<path d="M301 1H379V251H301V1Z" fill="#079F5A" stroke="#171717" stroke-width="2"/>
<path fill-rule="evenodd" clip-rule="evenodd" d="M277.385 9.8636C278.886 11.8325 281.661 12.43 283.86 11.1603C286.247 9.7822 287.068 6.717 285.69 4.33013C284.312 1.94326 281.247 1.12195 278.86 2.50002C276.882 3.64238 275.979 5.94416 276.513 8.05781L1.81976 166.652L2.81976 168.384L277.385 9.8636ZM278.959 8.21654C278.195 6.89291 278.65 5.19299 279.974 4.4288C281.297 3.6646 282.997 4.12009 283.762 5.44372C284.526 6.76735 284.07 8.46728 282.747 9.23148C281.423 9.99567 279.723 9.54017 278.959 8.21654Z" fill="#171717"/>
</svg>
