<svg width="295" height="288" viewBox="0 0 295 288" fill="none" xmlns="http://www.w3.org/2000/svg">
<path d="M282.456 274.243H25.5681C18.6512 274.243 13.0244 268.559 13.0244 261.57V13.4063C13.0262 6.41811 18.6529 0.733398 25.5681 0.733398H282.456C289.373 0.733398 295 6.41811 295 13.4063V261.57C295 268.557 289.373 274.243 282.456 274.243ZM25.5681 2.15993C19.4313 2.15993 14.4364 7.20448 14.4364 13.4063V261.57C14.4364 267.77 19.4295 272.817 25.5681 272.817H282.456C288.595 272.817 293.588 267.772 293.588 261.57V13.4063C293.588 7.20627 288.595 2.15993 282.456 2.15993H25.5681Z" fill="#079F5A"/>
<path d="M12.6544 14.4705H269.322C275.917 14.4705 281.264 19.8253 281.264 26.4301V274.594C281.264 281.199 275.917 286.554 269.322 286.554H12.6544C6.05934 286.554 0.712402 281.199 0.712402 274.594V26.4301C0.712402 19.8253 6.05934 14.4705 12.6544 14.4705Z" fill="white"/>
<path d="M269.321 287.267H12.6542C5.67633 287.267 0 281.582 0 274.594V26.4298C0 19.4415 5.67633 13.7568 12.6542 13.7568H269.321C276.299 13.7568 281.976 19.4415 281.976 26.4298V274.594C281.974 281.582 276.298 287.267 269.321 287.267ZM12.6542 15.1834C6.46333 15.1834 1.42443 20.2279 1.42443 26.4298V274.594C1.42443 280.794 6.46155 285.84 12.6542 285.84H269.321C275.512 285.84 280.551 280.796 280.551 274.594V26.4298C280.551 20.2297 275.514 15.1834 269.321 15.1834H12.6542Z" fill="#171717"/>
<path d="M26.3299 165.491C26.7786 179.157 35.1898 192.16 47.4025 198.245L43.5102 205.918C28.568 198.47 18.2979 182.575 17.7441 165.854L26.3299 165.491Z" fill="#079F5A"/>
<path d="M43.5104 206.632C43.4036 206.632 43.2949 206.607 43.1935 206.557C35.7384 202.842 29.3213 197.029 24.6332 189.75C19.9362 182.457 17.3081 174.201 17.0321 165.877C17.0196 165.487 17.3241 165.157 17.714 165.141L26.2998 164.777C26.4885 164.768 26.6755 164.838 26.8143 164.966C26.9532 165.095 27.0351 165.275 27.0423 165.466C27.2577 172.033 29.3356 178.554 33.0533 184.322C36.7622 190.079 41.8349 194.672 47.7196 197.605C47.8887 197.691 48.0187 197.839 48.0792 198.019C48.138 198.199 48.1237 198.397 48.0383 198.566L44.146 206.239C44.0214 206.489 43.7704 206.632 43.5104 206.632ZM18.4868 166.535C18.875 174.362 21.4069 182.106 25.8315 188.977C30.2472 195.835 36.2423 201.348 43.1988 204.959L46.4465 198.557C40.6046 195.501 35.571 190.86 31.8568 185.098C28.1355 179.322 25.9971 172.816 25.6499 166.234L18.4868 166.535Z" fill="#171717"/>
<path d="M99.3608 146.536C84.7764 117.782 44.0468 118.223 30.0091 147.208L22.2495 143.513C39.4494 108.046 89.1904 107.543 107.044 142.681L99.3608 146.536Z" fill="#079F5A"/>
<path d="M30.0071 147.922C29.9038 147.922 29.8006 147.901 29.7026 147.852L21.9431 144.158C21.7722 144.076 21.6404 143.93 21.5763 143.749C21.5122 143.569 21.5247 143.373 21.6083 143.202C25.7552 134.652 32.0761 127.619 39.8873 122.861C47.2266 118.393 55.7109 115.987 64.4248 115.905C73.1227 115.823 81.6443 118.067 89.0531 122.389C96.9391 126.991 103.379 133.896 107.679 142.355C107.765 142.524 107.781 142.721 107.72 142.901C107.661 143.081 107.531 143.231 107.362 143.316L99.6793 147.171C99.3303 147.348 98.903 147.207 98.725 146.857C95.3277 140.16 90.2372 134.696 84.0035 131.059C78.1474 127.64 71.4045 125.868 64.5227 125.932C57.6232 125.994 50.9088 127.897 45.1025 131.431C38.924 135.192 33.9261 140.755 30.6499 147.519C30.527 147.774 30.2724 147.922 30.0071 147.922ZM23.2073 143.181L29.6813 146.264C33.0785 139.538 38.1441 133.999 44.3618 130.213C50.3871 126.547 57.3543 124.573 64.5103 124.507C71.6502 124.445 78.6441 126.282 84.7211 129.828C90.9957 133.491 96.1521 138.928 99.6704 145.584L106.079 142.367C101.909 134.443 95.7853 127.972 88.3355 123.623C81.1493 119.429 72.8877 117.252 64.4373 117.332C55.9797 117.41 47.7465 119.745 40.6262 124.079C33.2459 128.575 27.2348 135.169 23.2073 143.181Z" fill="#171717"/>
<path d="M105.352 124.336C96.1204 114.743 83.3807 108.666 70.1406 107.449L70.9436 98.8813C86.1708 100.27 100.894 107.296 111.513 118.337L105.352 124.336Z" fill="#079F5A"/>
<path d="M105.352 125.049C105.348 125.049 105.345 125.049 105.341 125.049C105.153 125.046 104.971 124.967 104.839 124.832C95.7977 115.436 83.1274 109.359 70.0761 108.161C69.8874 108.143 69.7147 108.052 69.5936 107.906C69.4725 107.76 69.4156 107.573 69.4334 107.383L70.2364 98.8154C70.2738 98.4249 70.6192 98.136 71.0109 98.1717C86.4054 99.5768 101.357 106.747 112.027 117.842C112.3 118.125 112.293 118.575 112.011 118.847L105.851 124.846C105.717 124.976 105.537 125.049 105.352 125.049ZM70.9166 106.809C83.813 108.166 96.2927 114.149 105.365 123.328L110.505 118.323C100.267 107.927 86.1597 101.162 71.586 99.6606L70.9166 106.809Z" fill="#171717"/>
<path d="M119.016 179.995C122.818 167.237 121.99 153.146 116.573 140.971L124.433 137.494C130.671 151.517 131.635 167.754 127.251 182.451L119.016 179.995Z" fill="#079F5A"/>
<path d="M127.253 183.162C127.185 183.162 127.117 183.153 127.05 183.132L118.813 180.678C118.631 180.624 118.48 180.5 118.389 180.334C118.3 180.168 118.279 179.972 118.334 179.79C120.207 173.503 120.95 166.948 120.542 160.307C120.131 153.633 118.576 147.224 115.923 141.259C115.847 141.086 115.841 140.89 115.909 140.712C115.977 140.535 116.112 140.393 116.287 140.316L124.146 136.839C124.505 136.68 124.924 136.843 125.084 137.201C128.216 144.241 130.05 151.801 130.538 159.672C131.022 167.506 130.146 175.238 127.937 182.65C127.842 182.962 127.559 183.162 127.253 183.162ZM119.897 179.514L126.768 181.561C128.784 174.517 129.573 167.188 129.113 159.763C128.652 152.304 126.955 145.132 124.066 138.435L117.51 141.336C120.058 147.269 121.555 153.618 121.961 160.22C122.367 166.787 121.673 173.274 119.897 179.514Z" fill="#171717"/>
<path d="M61.9321 202.303C74.8516 203.424 87.9955 197.388 95.7141 186.978L102.582 192.151C93.1448 204.883 77.072 212.244 61.2769 210.883L61.9321 202.303Z" fill="#079F5A"/>
<path d="M65.0355 211.759C63.7589 211.759 62.4858 211.705 61.2163 211.595C60.8263 211.561 60.5379 211.22 60.5664 210.83L61.2216 202.249C61.2359 202.06 61.3249 201.884 61.4709 201.76C61.6169 201.637 61.8039 201.577 61.9926 201.593C68.1942 202.131 74.5863 200.997 80.4781 198.317C86.3467 195.646 91.4177 191.579 95.1425 186.555C95.2547 186.404 95.4239 186.302 95.6126 186.276C95.7996 186.249 95.9919 186.297 96.1432 186.411L103.011 191.584C103.324 191.819 103.388 192.263 103.155 192.579C98.4436 198.936 92.0302 204.079 84.6089 207.454C78.3628 210.291 71.6662 211.759 65.0355 211.759ZM62.0425 210.227C69.4334 210.74 77.0167 209.337 84.0196 206.152C90.9992 202.978 97.0584 198.194 101.585 192.292L95.8548 187.977C92.0302 192.93 86.9325 196.946 81.0692 199.615C75.181 202.295 68.8085 203.485 62.5891 203.069L62.0425 210.227Z" fill="#171717"/>
<path d="M103.36 161.372C103.265 160.121 103.126 158.874 102.948 157.631L111.432 156.266C111.612 157.401 111.865 159.698 111.936 160.845L103.36 161.372Z" fill="#079F5A"/>
<path d="M103.358 162.085C102.987 162.085 102.676 161.8 102.647 161.426C102.558 160.229 102.421 158.986 102.241 157.733C102.186 157.347 102.45 156.989 102.832 156.927L111.317 155.561C111.504 155.53 111.694 155.577 111.847 155.687C112 155.798 112.104 155.966 112.132 156.153C112.317 157.319 112.57 159.621 112.643 160.8C112.656 160.989 112.591 161.174 112.467 161.317C112.342 161.459 112.166 161.545 111.977 161.556L103.4 162.082C103.388 162.085 103.374 162.085 103.358 162.085ZM103.748 158.225C103.854 159.033 103.942 159.831 104.011 160.618L111.169 160.179C111.087 159.247 110.952 158.014 110.829 157.087L103.748 158.225Z" fill="#171717"/>
<path d="M56.9521 201.602C58.1824 201.854 59.4253 202.059 60.6823 202.187L59.7547 210.743C58.2252 210.584 56.7082 210.334 55.2036 210.028L56.9521 201.602Z" fill="#079F5A"/>
<path d="M59.7549 211.456C59.7299 211.456 59.705 211.454 59.6801 211.453C58.2165 211.301 56.7048 211.062 55.0614 210.727C54.8762 210.689 54.7124 210.579 54.6091 210.42C54.5059 210.262 54.4685 210.069 54.5059 209.884L56.2543 201.458C56.3345 201.073 56.7084 200.827 57.093 200.904C58.4159 201.173 59.6142 201.362 60.7537 201.479C60.9425 201.499 61.1152 201.594 61.2345 201.74C61.3538 201.888 61.409 202.077 61.3894 202.266L60.4617 210.821C60.4226 211.185 60.1145 211.456 59.7549 211.456ZM56.0478 209.468C57.1215 209.673 58.1364 209.834 59.1246 209.955L59.8991 202.817C59.1352 202.721 58.3447 202.596 57.5078 202.439L56.0478 209.468Z" fill="#171717"/>
<path d="M102.959 169.756C103.145 168.51 103.289 167.251 103.355 165.988L111.933 166.482C111.853 168.019 111.679 169.551 111.451 171.072L102.959 169.756Z" fill="#079F5A"/>
<path d="M111.45 171.786C111.415 171.786 111.377 171.782 111.342 171.777L102.85 170.461C102.464 170.4 102.197 170.038 102.256 169.651C102.459 168.284 102.587 167.075 102.644 165.951C102.653 165.762 102.738 165.584 102.879 165.457C103.02 165.331 103.205 165.265 103.395 165.275L111.974 165.769C112.366 165.793 112.665 166.126 112.643 166.518C112.567 167.964 112.408 169.489 112.154 171.178C112.125 171.365 112.024 171.534 111.871 171.647C111.749 171.738 111.602 171.786 111.45 171.786ZM103.764 169.159L110.849 170.258C111 169.161 111.108 168.136 111.178 167.153L104.02 166.741C103.965 167.501 103.88 168.301 103.764 169.159Z" fill="#171717"/>
<path d="M100.793 177.828C101.244 176.698 101.668 175.435 101.981 174.262L110.257 176.58C109.871 178.017 109.351 179.563 108.802 180.949L100.793 177.828Z" fill="#079F5A"/>
<path d="M108.803 181.662C108.718 181.662 108.63 181.646 108.545 181.614L100.536 178.493C100.36 178.423 100.217 178.288 100.141 178.113C100.064 177.938 100.062 177.741 100.132 177.564C100.581 176.435 100.994 175.196 101.293 174.076C101.343 173.892 101.462 173.736 101.628 173.641C101.793 173.547 101.989 173.522 102.172 173.573L110.448 175.891C110.824 175.997 111.047 176.385 110.943 176.763C110.56 178.188 110.035 179.766 109.464 181.209C109.355 181.491 109.086 181.662 108.803 181.662ZM101.715 177.421L108.395 180.025C108.76 179.051 109.099 178.038 109.378 177.074L102.475 175.139C102.254 175.89 101.994 176.669 101.715 177.421Z" fill="#171717"/>
<path d="M32.8935 117.126C31.4335 118.151 29.863 119.325 28.5063 120.469L22.9795 113.881C24.5375 112.565 26.35 111.208 28.0291 110.033L32.8935 117.126Z" fill="#079F5A"/>
<path d="M28.5061 121.182C28.4865 121.182 28.4651 121.182 28.4455 121.18C28.2568 121.164 28.0823 121.073 27.9612 120.928L22.4345 114.34C22.1816 114.038 22.2208 113.589 22.5199 113.336C24.3361 111.802 26.2964 110.376 27.6212 109.448C27.7761 109.34 27.9701 109.297 28.1571 109.331C28.344 109.365 28.5096 109.472 28.6165 109.629L33.4809 116.724C33.7017 117.047 33.6215 117.487 33.3028 117.712C31.663 118.862 30.1638 120.005 28.9672 121.016C28.8373 121.123 28.6734 121.182 28.5061 121.182ZM23.9853 113.969L28.5969 119.466C29.7507 118.523 30.9472 117.637 31.9087 116.948L27.8508 111.03C26.7451 111.818 25.3456 112.854 23.9853 113.969Z" fill="#171717"/>
<path d="M43.6748 111.329C42.0171 111.984 40.2437 112.818 38.6715 113.651L34.6831 106.028C36.501 105.067 38.5469 104.107 40.4485 103.353L43.6748 111.329Z" fill="#079F5A"/>
<path d="M38.6713 114.365C38.6001 114.365 38.5289 114.354 38.4594 114.333C38.2778 114.276 38.1283 114.151 38.0392 113.984L34.0508 106.361C33.8692 106.013 34.0028 105.581 34.35 105.398C36.2712 104.383 38.3437 103.422 40.1848 102.691C40.548 102.546 40.9593 102.723 41.1071 103.087L44.3334 111.063C44.4046 111.239 44.4028 111.437 44.3281 111.612C44.2533 111.787 44.1108 111.924 43.9346 111.994C42.3837 112.607 40.6317 113.42 39.0025 114.281C38.8992 114.337 38.7853 114.365 38.6713 114.365ZM35.6444 106.332L38.9722 112.691C40.2275 112.047 41.5308 111.443 42.747 110.938L40.0548 104.283C38.6357 104.872 37.1098 105.579 35.6444 106.332Z" fill="#171717"/>
<path d="M55.4526 107.982C53.6952 108.29 51.7758 108.695 50.0611 109.164L47.8105 100.858C49.7852 100.318 52.0019 99.849 54.0264 99.4941L55.4526 107.982Z" fill="#079F5A"/>
<path d="M50.0612 109.88C49.9383 109.88 49.8154 109.847 49.7068 109.785C49.543 109.69 49.4219 109.535 49.3739 109.353L47.1233 101.048C47.02 100.668 47.2444 100.277 47.6236 100.172C49.9668 99.53 52.3331 99.0682 53.9053 98.7936C54.0923 98.7615 54.2846 98.8043 54.4395 98.9149C54.5944 99.0236 54.6994 99.1912 54.7297 99.3785L56.1541 107.865C56.2182 108.251 55.9601 108.617 55.5755 108.685C54.2312 108.92 52.2138 109.314 50.2499 109.853C50.1876 109.871 50.1253 109.88 50.0612 109.88ZM48.6866 101.365L50.5633 108.294C52.0358 107.916 53.4869 107.618 54.6336 107.406L53.4442 100.325C52.1212 100.57 50.419 100.917 48.6866 101.365Z" fill="#171717"/>
<path d="M267.904 45.5969H14.0716C13.6781 45.5969 13.3594 45.2779 13.3594 44.8839C13.3594 44.49 13.6781 44.1709 14.0716 44.1709H267.904C268.298 44.1709 268.616 44.49 268.616 44.8839C268.616 45.2779 268.298 45.5969 267.904 45.5969Z" fill="#079F5A"/>
<path d="M216.57 243.761H177.3V250.489H216.57V243.761Z" fill="white"/>
<path d="M216.57 251.201H177.3C176.907 251.201 176.588 250.882 176.588 250.488V243.76C176.588 243.366 176.907 243.047 177.3 243.047H216.57C216.963 243.047 217.282 243.366 217.282 243.76V250.488C217.282 250.882 216.963 251.201 216.57 251.201ZM178.012 249.775H215.858V244.473H178.012V249.775Z" fill="#079F5A"/>
<path d="M202.673 255.039H177.3V261.767H202.673V255.039Z" fill="white"/>
<path d="M202.671 262.48H177.3C176.907 262.48 176.588 262.161 176.588 261.767V255.039C176.588 254.645 176.907 254.326 177.3 254.326H202.673C203.066 254.326 203.385 254.645 203.385 255.039V261.767C203.383 262.161 203.064 262.48 202.671 262.48ZM178.012 261.054H201.96V255.753H178.012V261.054Z" fill="#079F5A"/>
<path d="M168.686 87.8631H132.235C132.06 87.8631 131.891 87.7989 131.761 87.6813L109.439 67.733H46.5379C46.1444 67.733 45.8257 67.4139 45.8257 67.0198C45.8257 66.6257 46.1444 66.3065 46.5379 66.3065H109.711C109.886 66.3065 110.055 66.3707 110.185 66.4884L132.507 86.4384H168.688C169.081 86.4384 169.4 86.7576 169.4 87.1517C169.4 87.5457 169.079 87.8631 168.686 87.8631Z" fill="#079F5A"/>
<path d="M171.172 89.7685C172.544 89.7685 173.657 88.654 173.657 87.2792C173.657 85.9044 172.544 84.7899 171.172 84.7899C169.799 84.7899 168.686 85.9044 168.686 87.2792C168.686 88.654 169.799 89.7685 171.172 89.7685Z" fill="white"/>
<path d="M171.171 90.4812C169.409 90.4812 167.974 89.0439 167.974 87.2786C167.974 85.5133 169.409 84.076 171.171 84.076C172.934 84.076 174.369 85.5133 174.369 87.2786C174.369 89.0439 172.934 90.4812 171.171 90.4812ZM171.171 85.5026C170.194 85.5026 169.398 86.2997 169.398 87.2786C169.398 88.2576 170.194 89.0546 171.171 89.0546C172.149 89.0546 172.945 88.2576 172.945 87.2786C172.945 86.2997 172.149 85.5026 171.171 85.5026Z" fill="#079F5A"/>
<path d="M102.507 83.3086H46.5379C46.1444 83.3086 45.8257 82.9895 45.8257 82.5956C45.8257 82.2016 46.1444 81.8826 46.5379 81.8826H102.509C102.902 81.8826 103.221 82.2016 103.221 82.5956C103.221 82.9895 102.901 83.3086 102.507 83.3086Z" fill="#079F5A"/>
<path d="M105.063 85.086C106.436 85.086 107.548 83.9715 107.548 82.5967C107.548 81.2219 106.436 80.1074 105.063 80.1074C103.69 80.1074 102.577 81.2219 102.577 82.5967C102.577 83.9715 103.69 85.086 105.063 85.086Z" fill="white"/>
<path d="M105.063 85.7987C103.3 85.7987 101.865 84.3614 101.865 82.5961C101.865 80.8308 103.3 79.3936 105.063 79.3936C106.825 79.3936 108.26 80.8308 108.26 82.5961C108.26 84.3614 106.825 85.7987 105.063 85.7987ZM105.063 80.8201C104.085 80.8201 103.289 81.6172 103.289 82.5961C103.289 83.5751 104.085 84.3721 105.063 84.3721C106.04 84.3721 106.836 83.5751 106.836 82.5961C106.836 81.6172 106.04 80.8201 105.063 80.8201Z" fill="#079F5A"/>
<path d="M247.638 102.714C247.504 102.714 247.369 102.676 247.248 102.598L224.749 87.8634H195.29C195.108 87.8634 194.932 87.7939 194.8 87.6673L179.187 72.8474H153.861C153.467 72.8474 153.148 72.5282 153.148 72.1342C153.148 71.7401 153.467 71.4209 153.861 71.4209H179.472C179.653 71.4209 179.83 71.4904 179.961 71.617L195.575 86.4369H224.963C225.101 86.4369 225.237 86.4779 225.353 86.5528L248.029 101.403C248.359 101.619 248.451 102.061 248.236 102.391C248.097 102.599 247.869 102.714 247.638 102.714Z" fill="#079F5A"/>
<path d="M153.859 74.6237C155.232 74.6237 156.345 73.5092 156.345 72.1344C156.345 70.7596 155.232 69.6451 153.859 69.6451C152.486 69.6451 151.374 70.7596 151.374 72.1344C151.374 73.5092 152.486 74.6237 153.859 74.6237Z" fill="white"/>
<path d="M153.859 75.3366C152.096 75.3366 150.661 73.8994 150.661 72.1341C150.661 70.3687 152.096 68.9315 153.859 68.9315C155.622 68.9315 157.057 70.3687 157.057 72.1341C157.057 73.8994 155.622 75.3366 153.859 75.3366ZM153.859 70.358C152.881 70.358 152.086 71.1551 152.086 72.1341C152.086 73.113 152.881 73.9101 153.859 73.9101C154.836 73.9101 155.632 73.113 155.632 72.1341C155.632 71.1551 154.836 70.358 153.859 70.358Z" fill="#079F5A"/>
<path d="M197.504 232.893C197.352 232.893 197.199 232.845 197.069 232.745L182.09 221.167H123.181C123.036 221.167 122.896 221.124 122.778 221.042L101.9 206.7C101.576 206.477 101.492 206.033 101.715 205.709C101.937 205.384 102.38 205.3 102.704 205.523L123.4 219.74H182.332C182.488 219.74 182.641 219.792 182.766 219.888L197.938 231.616C198.25 231.857 198.307 232.305 198.066 232.617C197.927 232.798 197.717 232.893 197.504 232.893Z" fill="#079F5A"/>
<path d="M197.506 234.669C198.878 234.669 199.991 233.554 199.991 232.18C199.991 230.805 198.878 229.69 197.506 229.69C196.133 229.69 195.02 230.805 195.02 232.18C195.02 233.554 196.133 234.669 197.506 234.669Z" fill="white"/>
<path d="M197.505 235.382C195.743 235.382 194.308 233.944 194.308 232.179C194.308 230.414 195.743 228.977 197.505 228.977C199.268 228.977 200.703 230.414 200.703 232.179C200.703 233.944 199.268 235.382 197.505 235.382ZM197.505 230.405C196.528 230.405 195.732 231.202 195.732 232.181C195.732 233.16 196.528 233.957 197.505 233.957C198.483 233.957 199.279 233.16 199.279 232.181C199.279 231.202 198.483 230.405 197.505 230.405Z" fill="#079F5A"/>
<path d="M87.8368 251.203H60.9383C60.5448 251.203 60.2261 250.884 60.2261 250.49C60.2261 250.095 60.5448 249.776 60.9383 249.776H87.648L115.006 234.051C115.115 233.988 115.236 233.956 115.36 233.956H177.3C177.693 233.956 178.012 234.275 178.012 234.669C178.012 235.063 177.693 235.383 177.3 235.383H115.549L88.1911 251.108C88.0843 251.169 87.9614 251.203 87.8368 251.203Z" fill="#079F5A"/>
<path d="M57.864 252.979C59.2368 252.979 60.3497 251.864 60.3497 250.489C60.3497 249.115 59.2368 248 57.864 248C56.4913 248 55.3784 249.115 55.3784 250.489C55.3784 251.864 56.4913 252.979 57.864 252.979Z" fill="white"/>
<path d="M57.8639 253.691C56.1011 253.691 54.666 252.254 54.666 250.489C54.666 248.723 56.1011 247.286 57.8639 247.286C59.6266 247.286 61.0617 248.723 61.0617 250.489C61.0617 252.254 59.6266 253.691 57.8639 253.691ZM57.8639 248.713C56.8863 248.713 56.0904 249.51 56.0904 250.489C56.0904 251.468 56.8863 252.265 57.8639 252.265C58.8414 252.265 59.6373 251.468 59.6373 250.489C59.6373 249.51 58.8414 248.713 57.8639 248.713Z" fill="#079F5A"/>
<path d="M17.4243 31.7422C17.4243 32.6695 16.673 33.422 15.7471 33.422C14.8212 33.422 14.0698 32.6695 14.0698 31.7422C14.0698 30.815 14.8212 30.0625 15.7471 30.0625C16.673 30.0625 17.4243 30.815 17.4243 31.7422ZM29.7599 30.0625C28.834 30.0625 28.0826 30.815 28.0826 31.7422C28.0826 32.6695 28.834 33.422 29.7599 33.422C30.6857 33.422 31.4371 32.6695 31.4371 31.7422C31.4371 30.815 30.6857 30.0625 29.7599 30.0625ZM43.7727 30.0625C42.8468 30.0625 42.0954 30.815 42.0954 31.7422C42.0954 32.6695 42.8468 33.422 43.7727 33.422C44.6985 33.422 45.4499 32.6695 45.4499 31.7422C45.4499 30.815 44.6985 30.0625 43.7727 30.0625Z" fill="white"/>
<path d="M43.7725 34.1346C42.4549 34.1346 41.383 33.0612 41.383 31.7416C41.383 30.4221 42.4549 29.3486 43.7725 29.3486C45.0901 29.3486 46.1619 30.4221 46.1619 31.7416C46.1619 33.0612 45.0901 34.1346 43.7725 34.1346ZM43.7725 30.7752C43.2401 30.7752 42.8074 31.2085 42.8074 31.7416C42.8074 32.2748 43.2401 32.7081 43.7725 32.7081C44.3048 32.7081 44.7375 32.2748 44.7375 31.7416C44.7375 31.2085 44.3048 30.7752 43.7725 30.7752ZM29.7597 34.1346C28.4421 34.1346 27.3702 33.0612 27.3702 31.7416C27.3702 30.4221 28.4421 29.3486 29.7597 29.3486C31.0773 29.3486 32.1492 30.4221 32.1492 31.7416C32.1492 33.0612 31.0773 34.1346 29.7597 34.1346ZM29.7597 30.7752C29.2273 30.7752 28.7946 31.2085 28.7946 31.7416C28.7946 32.2748 29.2273 32.7081 29.7597 32.7081C30.2921 32.7081 30.7247 32.2748 30.7247 31.7416C30.7247 31.2085 30.2921 30.7752 29.7597 30.7752ZM15.7469 34.1346C14.4293 34.1346 13.3574 33.0612 13.3574 31.7416C13.3574 30.4221 14.4293 29.3486 15.7469 29.3486C17.0645 29.3486 18.1364 30.4221 18.1364 31.7416C18.1364 33.0612 17.0645 34.1346 15.7469 34.1346ZM15.7469 30.7752C15.2145 30.7752 14.7818 31.2085 14.7818 31.7416C14.7818 32.2748 15.2145 32.7081 15.7469 32.7081C16.2793 32.7081 16.7119 32.2748 16.7119 31.7416C16.7119 31.2085 16.2793 30.7752 15.7469 30.7752Z" fill="#079F5A"/>
<path d="M220.707 171.923C228.026 163.631 230.291 151.299 226.481 140.921L233.028 138.57C237.689 151.268 234.912 166.34 225.959 176.488L220.707 171.923Z" fill="#079F5A"/>
<path d="M225.961 177.201C225.795 177.201 225.63 177.144 225.494 177.026L220.24 172.462C220.096 172.337 220.009 172.16 219.996 171.969C219.984 171.779 220.048 171.593 220.172 171.45C223.673 167.485 226.057 162.513 227.067 157.073C228.074 151.645 227.64 146.144 225.811 141.165C225.745 140.987 225.754 140.789 225.835 140.618C225.915 140.445 226.061 140.313 226.239 140.249L232.786 137.899C233.154 137.767 233.56 137.956 233.694 138.325C236.028 144.682 236.582 151.698 235.296 158.615C234.009 165.545 230.964 171.889 226.492 176.959C226.354 177.119 226.157 177.201 225.961 177.201ZM221.711 171.852L225.89 175.482C229.94 170.696 232.706 164.79 233.9 158.357C235.093 151.934 234.643 145.423 232.597 139.486L227.389 141.354C229.102 146.392 229.476 151.902 228.468 157.337C227.457 162.783 225.126 167.784 221.711 171.852Z" fill="#171717"/>
<path d="M167.212 142.435C159.839 167.472 184.054 189.88 208.398 180.636L210.913 187.13C181.111 198.43 151.559 171.044 160.551 140.429L167.212 142.435Z" fill="#079F5A"/>
<path d="M196.974 190.434C194.306 190.434 191.652 190.158 189.045 189.599C182.222 188.139 175.873 184.822 170.682 180.004C165.497 175.192 161.717 169.111 159.75 162.421C157.656 155.299 157.697 147.624 159.867 140.227C159.921 140.045 160.045 139.892 160.211 139.801C160.378 139.71 160.574 139.691 160.756 139.746L167.417 141.752C167.793 141.864 168.006 142.26 167.894 142.636C166.185 148.442 166.149 154.464 167.791 160.051C169.335 165.297 172.301 170.068 176.371 173.849C180.449 177.634 185.434 180.241 190.788 181.388C196.486 182.608 202.486 182.117 208.145 179.97C208.512 179.831 208.919 180.015 209.062 180.379L211.578 186.873C211.647 187.05 211.642 187.247 211.563 187.422C211.487 187.595 211.343 187.731 211.165 187.798C206.544 189.548 201.74 190.434 196.974 190.434ZM161.039 141.32C159.139 148.239 159.164 155.379 161.117 162.018C163.012 168.462 166.655 174.32 171.653 178.958C176.656 183.601 182.774 186.798 189.346 188.205C196.114 189.653 203.236 189.136 209.989 186.711L207.988 181.547C202.269 183.583 196.237 184.013 190.493 182.782C184.887 181.582 179.671 178.854 175.406 174.894C171.147 170.94 168.042 165.946 166.427 160.454C164.771 154.822 164.743 148.774 166.336 142.916L161.039 141.32Z" fill="#171717"/>
<path d="M151.365 152.165C151.474 162.948 155.601 173.615 162.716 181.698L157.489 186.293C149.298 177.001 144.532 164.672 144.411 152.267L151.365 152.165Z" fill="#079F5A"/>
<path d="M157.49 187.007C157.293 187.007 157.097 186.925 156.956 186.766C148.655 177.347 143.823 164.776 143.7 152.274C143.697 151.882 144.01 151.559 144.402 151.554L151.357 151.452C151.545 151.451 151.729 151.522 151.864 151.656C151.999 151.788 152.078 151.969 152.079 152.158C152.186 162.688 156.258 173.282 163.252 181.227C163.377 181.37 163.441 181.556 163.429 181.745C163.416 181.934 163.331 182.11 163.188 182.235L157.961 186.83C157.825 186.948 157.658 187.007 157.49 187.007ZM145.135 152.97C145.422 164.662 149.92 176.363 157.558 185.284L161.716 181.629C154.941 173.678 150.943 163.28 150.667 152.888L145.135 152.97Z" fill="#171717"/>
<path d="M174.212 111.807C164.894 117.2 157.564 125.953 153.995 136.133L147.439 133.806C151.549 122.082 159.992 111.991 170.725 105.78L174.212 111.807Z" fill="#079F5A"/>
<path d="M153.993 136.845C153.913 136.845 153.833 136.831 153.755 136.804L147.199 134.477C146.829 134.345 146.635 133.939 146.765 133.569C148.833 127.669 151.957 122.184 156.048 117.268C160.12 112.375 164.938 108.304 170.367 105.162C170.707 104.966 171.144 105.082 171.339 105.422L174.824 111.449C174.918 111.613 174.945 111.808 174.895 111.991C174.847 112.175 174.728 112.33 174.564 112.425C165.389 117.735 158.135 126.462 154.663 136.369C154.601 136.547 154.469 136.694 154.298 136.776C154.205 136.822 154.1 136.845 153.993 136.845ZM148.351 133.371L153.564 135.222C157.154 125.499 164.272 116.936 173.239 111.551L170.467 106.756C160.377 112.79 152.37 122.426 148.351 133.371Z" fill="#171717"/>
<path d="M220.181 130.446C213.201 122.597 202.115 118.833 191.797 120.664L190.625 113.799C203.244 111.559 216.787 116.171 225.326 125.762L220.181 130.446Z" fill="#079F5A"/>
<path d="M220.181 131.159C220.168 131.159 220.156 131.159 220.143 131.158C219.953 131.147 219.775 131.061 219.648 130.921C212.895 123.326 202.012 119.576 191.92 121.366C191.733 121.4 191.541 121.357 191.386 121.247C191.231 121.136 191.126 120.97 191.094 120.783L189.922 113.918C189.856 113.531 190.115 113.164 190.501 113.096C196.824 111.973 203.476 112.518 209.736 114.669C216.02 116.828 221.596 120.5 225.857 125.288C226.117 125.58 226.094 126.028 225.805 126.29L220.658 130.974C220.53 131.093 220.359 131.159 220.181 131.159ZM197.027 119.494C200.536 119.494 204.074 120.084 207.473 121.25C212.402 122.943 216.798 125.767 220.229 129.441L224.322 125.714C220.286 121.363 215.099 118.018 209.277 116.017C203.474 114.023 197.326 113.462 191.45 114.384L192.381 119.845C193.913 119.61 195.467 119.494 197.027 119.494Z" fill="#171717"/>
<path d="M173.089 131.48C172.45 132.27 171.841 133.08 171.256 133.911L165.504 129.993C166.03 129.224 167.155 127.734 167.75 127.017L173.089 131.48Z" fill="#079F5A"/>
<path d="M171.255 134.624C171.117 134.624 170.978 134.583 170.855 134.501L165.104 130.583C164.947 130.476 164.84 130.312 164.805 130.127C164.769 129.941 164.81 129.749 164.917 129.592C165.458 128.8 166.589 127.299 167.201 126.562C167.322 126.416 167.495 126.325 167.684 126.309C167.872 126.291 168.059 126.35 168.204 126.471L173.543 130.934C173.843 131.184 173.885 131.628 173.64 131.931C173.031 132.682 172.423 133.486 171.836 134.322C171.701 134.519 171.48 134.624 171.255 134.624ZM166.507 129.811L171.083 132.928C171.417 132.466 171.758 132.015 172.099 131.58L167.851 128.03C167.426 128.572 166.911 129.253 166.507 129.811Z" fill="#171717"/>
<path d="M222.723 133.631C222.137 132.798 221.521 131.985 220.853 131.211L226.147 126.692C226.958 127.637 227.713 128.629 228.427 129.645L222.723 133.631Z" fill="#079F5A"/>
<path d="M222.723 134.344C222.499 134.344 222.278 134.239 222.141 134.041C221.514 133.15 220.916 132.376 220.314 131.675C220.189 131.53 220.129 131.343 220.143 131.154C220.157 130.965 220.246 130.789 220.391 130.666L225.684 126.147C225.983 125.892 226.43 125.928 226.687 126.224C227.466 127.131 228.227 128.116 229.01 129.232C229.119 129.387 229.162 129.58 229.129 129.765C229.097 129.952 228.991 130.118 228.836 130.227L223.131 134.212C223.006 134.303 222.864 134.344 222.723 134.344ZM221.852 131.295C222.196 131.718 222.542 132.163 222.892 132.645L227.429 129.474C226.97 128.843 226.517 128.257 226.063 127.702L221.852 131.295Z" fill="#171717"/>
<path d="M177.977 126.769C177.175 127.401 176.392 128.06 175.653 128.767L170.879 123.701C171.78 122.841 172.731 122.035 173.71 121.267L177.977 126.769Z" fill="#079F5A"/>
<path d="M175.653 129.479C175.648 129.479 175.641 129.479 175.635 129.479C175.447 129.474 175.267 129.393 175.135 129.256L170.361 124.19C170.093 123.905 170.105 123.455 170.388 123.184C171.237 122.373 172.181 121.562 173.271 120.706C173.42 120.588 173.609 120.535 173.798 120.56C173.987 120.583 174.157 120.681 174.273 120.831L178.539 126.332C178.78 126.642 178.725 127.088 178.416 127.33C177.542 128.019 176.798 128.657 176.145 129.283C176.013 129.409 175.837 129.479 175.653 129.479ZM171.889 123.734L175.687 127.762C176.088 127.4 176.517 127.031 176.983 126.651L173.589 122.275C172.977 122.773 172.414 123.254 171.889 123.734Z" fill="#171717"/>
<path d="M183.73 123.224C182.838 123.639 181.887 124.146 181.052 124.663L177.468 118.693C178.492 118.063 179.656 117.441 180.748 116.931L183.73 123.224Z" fill="#079F5A"/>
<path d="M181.052 125.375C180.995 125.375 180.94 125.368 180.885 125.356C180.7 125.311 180.541 125.194 180.443 125.03L176.859 119.059C176.658 118.724 176.763 118.289 177.096 118.084C178.116 117.456 179.305 116.818 180.447 116.283C180.801 116.117 181.223 116.269 181.392 116.624L184.375 122.916C184.456 123.088 184.465 123.286 184.401 123.464C184.337 123.642 184.204 123.788 184.031 123.869C183.144 124.281 182.218 124.778 181.426 125.267C181.312 125.338 181.182 125.375 181.052 125.375ZM178.447 118.938L181.298 123.685C181.775 123.41 182.279 123.139 182.785 122.888L180.413 117.883C179.743 118.214 179.072 118.574 178.447 118.938Z" fill="#171717"/>
<path d="M190.007 196.734C191.435 196.944 193.01 197.128 194.444 197.208L194.04 204.162C192.393 204.07 190.573 203.859 188.931 203.617L190.007 196.734Z" fill="#079F5A"/>
<path d="M194.039 204.875C194.025 204.875 194.013 204.875 193.998 204.874C192.072 204.765 190.124 204.513 188.828 204.321C188.639 204.292 188.472 204.191 188.358 204.037C188.245 203.884 188.197 203.691 188.228 203.504L189.301 196.623C189.362 196.236 189.723 195.97 190.108 196.027C191.707 196.263 193.22 196.423 194.481 196.495C194.67 196.505 194.846 196.591 194.972 196.732C195.099 196.873 195.163 197.058 195.152 197.247L194.748 204.201C194.728 204.581 194.415 204.875 194.039 204.875ZM189.746 203.012C190.776 203.153 192.059 203.306 193.37 203.404L193.69 197.875C192.586 197.791 191.493 197.661 190.601 197.539L189.746 203.012Z" fill="#171717"/>
<path d="M180.447 194.146C181.785 194.682 183.292 195.178 184.679 195.565L182.797 202.27C181.193 201.822 179.458 201.25 177.92 200.635L180.447 194.146Z" fill="#079F5A"/>
<path d="M182.797 202.983C182.734 202.983 182.669 202.974 182.606 202.956C180.908 202.484 179.15 201.893 177.656 201.296C177.293 201.152 177.115 200.74 177.258 200.374L179.784 193.885C179.854 193.709 179.991 193.566 180.165 193.489C180.34 193.414 180.537 193.411 180.714 193.482C181.962 193.981 183.438 194.477 184.873 194.875C185.055 194.925 185.209 195.046 185.304 195.212C185.396 195.378 185.42 195.572 185.37 195.756L183.488 202.46C183.393 202.778 183.108 202.983 182.797 202.983ZM178.842 200.228C179.927 200.638 181.118 201.037 182.305 201.387L183.803 196.055C182.791 195.756 181.778 195.417 180.852 195.069L178.842 200.228Z" fill="#171717"/>
<path d="M171.658 189.561C172.863 190.358 174.218 191.187 175.486 191.865L172.203 198.004C170.741 197.223 169.176 196.265 167.789 195.347L171.658 189.561Z" fill="#079F5A"/>
<path d="M172.201 198.717C172.087 198.717 171.973 198.691 171.866 198.634C170.126 197.704 168.474 196.658 167.393 195.943C167.235 195.838 167.124 195.675 167.087 195.488C167.05 195.303 167.089 195.108 167.194 194.951L171.065 189.165C171.282 188.839 171.722 188.751 172.049 188.967C172.97 189.575 174.371 190.463 175.821 191.237C175.988 191.326 176.113 191.478 176.168 191.66C176.223 191.841 176.203 192.036 176.114 192.203L172.829 198.343C172.701 198.58 172.455 198.717 172.201 198.717ZM168.78 195.144C169.648 195.704 170.746 196.385 171.914 197.034L174.526 192.152C173.542 191.601 172.609 191.025 171.859 190.543L168.78 195.144Z" fill="#171717"/>
<path d="M12.6544 14.4705H269.322C275.917 14.4705 281.264 19.8253 281.264 26.4301V274.594C281.264 281.199 275.917 286.554 269.322 286.554H12.6544C6.05934 286.554 0.712402 281.199 0.712402 274.594V26.4301C0.712402 19.8253 6.05934 14.4705 12.6544 14.4705Z" fill="white"/>
<path d="M269.321 287.267H12.6542C5.67633 287.267 0 281.582 0 274.594V26.4298C0 19.4415 5.67633 13.7568 12.6542 13.7568H269.321C276.299 13.7568 281.976 19.4415 281.976 26.4298V274.594C281.974 281.582 276.298 287.267 269.321 287.267ZM12.6542 15.1834C6.46333 15.1834 1.42443 20.2279 1.42443 26.4298V274.594C1.42443 280.794 6.46155 285.84 12.6542 285.84H269.321C275.512 285.84 280.551 280.796 280.551 274.594V26.4298C280.551 20.2297 275.514 15.1834 269.321 15.1834H12.6542Z" fill="#171717"/>
<path d="M26.3299 165.491C26.7786 179.157 35.1898 192.16 47.4025 198.245L43.5102 205.918C28.568 198.47 18.2979 182.575 17.7441 165.854L26.3299 165.491Z" fill="#079F5A"/>
<path d="M43.5104 206.632C43.4036 206.632 43.2949 206.607 43.1935 206.557C35.7384 202.842 29.3213 197.029 24.6332 189.75C19.9362 182.457 17.3081 174.201 17.0321 165.877C17.0196 165.487 17.3241 165.157 17.714 165.141L26.2998 164.777C26.4885 164.768 26.6755 164.838 26.8143 164.966C26.9532 165.095 27.0351 165.275 27.0423 165.466C27.2577 172.033 29.3356 178.554 33.0533 184.322C36.7622 190.079 41.8349 194.672 47.7196 197.605C47.8887 197.691 48.0187 197.839 48.0792 198.019C48.138 198.199 48.1237 198.397 48.0383 198.566L44.146 206.239C44.0214 206.489 43.7704 206.632 43.5104 206.632ZM18.4868 166.535C18.875 174.362 21.4069 182.106 25.8315 188.977C30.2472 195.835 36.2423 201.348 43.1988 204.959L46.4465 198.557C40.6046 195.501 35.571 190.86 31.8568 185.098C28.1355 179.322 25.9971 172.816 25.6499 166.234L18.4868 166.535Z" fill="#171717"/>
<path d="M99.3608 146.536C84.7764 117.782 44.0468 118.223 30.0091 147.208L22.2495 143.513C39.4494 108.046 89.1904 107.543 107.044 142.681L99.3608 146.536Z" fill="#079F5A"/>
<path d="M30.0071 147.922C29.9038 147.922 29.8006 147.901 29.7026 147.852L21.9431 144.158C21.7722 144.076 21.6404 143.93 21.5763 143.749C21.5122 143.569 21.5247 143.373 21.6083 143.202C25.7552 134.652 32.0761 127.619 39.8873 122.861C47.2266 118.393 55.7109 115.987 64.4248 115.905C73.1227 115.823 81.6443 118.067 89.0531 122.389C96.9391 126.991 103.379 133.896 107.679 142.355C107.765 142.524 107.781 142.721 107.72 142.901C107.661 143.081 107.531 143.231 107.362 143.316L99.6793 147.171C99.3303 147.348 98.903 147.207 98.725 146.857C95.3277 140.16 90.2372 134.696 84.0035 131.059C78.1474 127.64 71.4045 125.868 64.5227 125.932C57.6232 125.994 50.9088 127.897 45.1025 131.431C38.924 135.192 33.9261 140.755 30.6499 147.519C30.527 147.774 30.2724 147.922 30.0071 147.922ZM23.2073 143.181L29.6813 146.264C33.0785 139.538 38.1441 133.999 44.3618 130.213C50.3871 126.547 57.3543 124.573 64.5103 124.507C71.6502 124.445 78.6441 126.282 84.7211 129.828C90.9957 133.491 96.1521 138.928 99.6704 145.584L106.079 142.367C101.909 134.443 95.7853 127.972 88.3355 123.623C81.1493 119.429 72.8877 117.252 64.4373 117.332C55.9797 117.41 47.7465 119.745 40.6262 124.079C33.2459 128.575 27.2348 135.169 23.2073 143.181Z" fill="#171717"/>
<path d="M105.352 124.336C96.1204 114.743 83.3807 108.666 70.1406 107.449L70.9436 98.8813C86.1708 100.27 100.894 107.296 111.513 118.337L105.352 124.336Z" fill="#079F5A"/>
<path d="M105.352 125.049C105.348 125.049 105.345 125.049 105.341 125.049C105.153 125.046 104.971 124.967 104.839 124.832C95.7977 115.436 83.1274 109.359 70.0761 108.161C69.8874 108.143 69.7147 108.052 69.5936 107.906C69.4725 107.76 69.4156 107.573 69.4334 107.383L70.2364 98.8154C70.2738 98.4249 70.6192 98.136 71.0109 98.1717C86.4054 99.5768 101.357 106.747 112.027 117.842C112.3 118.125 112.293 118.575 112.011 118.847L105.851 124.846C105.717 124.976 105.537 125.049 105.352 125.049ZM70.9166 106.809C83.813 108.166 96.2927 114.149 105.365 123.328L110.505 118.323C100.267 107.927 86.1597 101.162 71.586 99.6606L70.9166 106.809Z" fill="#171717"/>
<path d="M119.016 179.995C122.818 167.237 121.99 153.146 116.573 140.971L124.433 137.494C130.671 151.517 131.635 167.754 127.251 182.451L119.016 179.995Z" fill="#079F5A"/>
<path d="M127.253 183.162C127.185 183.162 127.117 183.153 127.05 183.132L118.813 180.678C118.631 180.624 118.48 180.5 118.389 180.334C118.3 180.168 118.279 179.972 118.334 179.79C120.207 173.503 120.95 166.948 120.542 160.307C120.131 153.633 118.576 147.224 115.923 141.259C115.847 141.086 115.841 140.89 115.909 140.712C115.977 140.535 116.112 140.393 116.287 140.316L124.146 136.839C124.505 136.68 124.924 136.843 125.084 137.201C128.216 144.241 130.05 151.801 130.538 159.672C131.022 167.506 130.146 175.238 127.937 182.65C127.842 182.962 127.559 183.162 127.253 183.162ZM119.897 179.514L126.768 181.561C128.784 174.517 129.573 167.188 129.113 159.763C128.652 152.304 126.955 145.132 124.066 138.435L117.51 141.336C120.058 147.269 121.555 153.618 121.961 160.22C122.367 166.787 121.673 173.274 119.897 179.514Z" fill="#171717"/>
<path d="M61.9321 202.303C74.8516 203.424 87.9955 197.388 95.7141 186.978L102.582 192.151C93.1448 204.883 77.072 212.244 61.2769 210.883L61.9321 202.303Z" fill="#079F5A"/>
<path d="M65.0355 211.759C63.7589 211.759 62.4858 211.705 61.2163 211.595C60.8263 211.561 60.5379 211.22 60.5664 210.83L61.2216 202.249C61.2359 202.06 61.3249 201.884 61.4709 201.76C61.6169 201.637 61.8039 201.577 61.9926 201.593C68.1942 202.131 74.5863 200.997 80.4781 198.317C86.3467 195.646 91.4177 191.579 95.1425 186.555C95.2547 186.404 95.4239 186.302 95.6126 186.276C95.7996 186.249 95.9919 186.297 96.1432 186.411L103.011 191.584C103.324 191.819 103.388 192.263 103.155 192.579C98.4436 198.936 92.0302 204.079 84.6089 207.454C78.3628 210.291 71.6662 211.759 65.0355 211.759ZM62.0425 210.227C69.4334 210.74 77.0167 209.337 84.0196 206.152C90.9992 202.978 97.0584 198.194 101.585 192.292L95.8548 187.977C92.0302 192.93 86.9325 196.946 81.0692 199.615C75.181 202.295 68.8085 203.485 62.5891 203.069L62.0425 210.227Z" fill="#171717"/>
<path d="M103.36 161.372C103.265 160.121 103.126 158.874 102.948 157.631L111.432 156.266C111.612 157.401 111.865 159.698 111.936 160.845L103.36 161.372Z" fill="#079F5A"/>
<path d="M103.358 162.085C102.987 162.085 102.676 161.8 102.647 161.426C102.558 160.229 102.421 158.986 102.241 157.733C102.186 157.347 102.45 156.989 102.832 156.927L111.317 155.561C111.504 155.53 111.694 155.577 111.847 155.687C112 155.798 112.104 155.966 112.132 156.153C112.317 157.319 112.57 159.621 112.643 160.8C112.656 160.989 112.591 161.174 112.467 161.317C112.342 161.459 112.166 161.545 111.977 161.556L103.4 162.082C103.388 162.085 103.374 162.085 103.358 162.085ZM103.748 158.225C103.854 159.033 103.942 159.831 104.011 160.618L111.169 160.179C111.087 159.247 110.952 158.014 110.829 157.087L103.748 158.225Z" fill="#171717"/>
<path d="M56.9521 201.602C58.1824 201.854 59.4253 202.059 60.6823 202.187L59.7547 210.743C58.2252 210.584 56.7082 210.334 55.2036 210.028L56.9521 201.602Z" fill="#079F5A"/>
<path d="M59.7549 211.456C59.7299 211.456 59.705 211.454 59.6801 211.453C58.2165 211.301 56.7048 211.062 55.0614 210.727C54.8762 210.689 54.7124 210.579 54.6091 210.42C54.5059 210.262 54.4685 210.069 54.5059 209.884L56.2543 201.458C56.3345 201.073 56.7084 200.827 57.093 200.904C58.4159 201.173 59.6142 201.362 60.7537 201.479C60.9425 201.499 61.1152 201.594 61.2345 201.74C61.3538 201.888 61.409 202.077 61.3894 202.266L60.4617 210.821C60.4226 211.185 60.1145 211.456 59.7549 211.456ZM56.0478 209.468C57.1215 209.673 58.1364 209.834 59.1246 209.955L59.8991 202.817C59.1352 202.721 58.3447 202.596 57.5078 202.439L56.0478 209.468Z" fill="#171717"/>
<path d="M102.959 169.756C103.145 168.51 103.289 167.251 103.355 165.988L111.933 166.482C111.853 168.019 111.679 169.551 111.451 171.072L102.959 169.756Z" fill="#079F5A"/>
<path d="M111.45 171.786C111.415 171.786 111.377 171.782 111.342 171.777L102.85 170.461C102.464 170.4 102.197 170.038 102.256 169.651C102.459 168.284 102.587 167.075 102.644 165.951C102.653 165.762 102.738 165.584 102.879 165.457C103.02 165.331 103.205 165.265 103.395 165.275L111.974 165.769C112.366 165.793 112.665 166.126 112.643 166.518C112.567 167.964 112.408 169.489 112.154 171.178C112.125 171.365 112.024 171.534 111.871 171.647C111.749 171.738 111.602 171.786 111.45 171.786ZM103.764 169.159L110.849 170.258C111 169.161 111.108 168.136 111.178 167.153L104.02 166.741C103.965 167.501 103.88 168.301 103.764 169.159Z" fill="#171717"/>
<path d="M100.793 177.828C101.244 176.698 101.668 175.435 101.981 174.262L110.257 176.58C109.871 178.017 109.351 179.563 108.802 180.949L100.793 177.828Z" fill="#079F5A"/>
<path d="M108.803 181.662C108.718 181.662 108.63 181.646 108.545 181.614L100.536 178.493C100.36 178.423 100.217 178.288 100.141 178.113C100.064 177.938 100.062 177.741 100.132 177.564C100.581 176.435 100.994 175.196 101.293 174.076C101.343 173.892 101.462 173.736 101.628 173.641C101.793 173.547 101.989 173.522 102.172 173.573L110.448 175.891C110.824 175.997 111.047 176.385 110.943 176.763C110.56 178.188 110.035 179.766 109.464 181.209C109.355 181.491 109.086 181.662 108.803 181.662ZM101.715 177.421L108.395 180.025C108.76 179.051 109.099 178.038 109.378 177.074L102.475 175.139C102.254 175.89 101.994 176.669 101.715 177.421Z" fill="#171717"/>
<path d="M32.8935 117.126C31.4335 118.151 29.863 119.325 28.5063 120.469L22.9795 113.881C24.5375 112.565 26.35 111.208 28.0291 110.033L32.8935 117.126Z" fill="#079F5A"/>
<path d="M28.5061 121.182C28.4865 121.182 28.4651 121.182 28.4455 121.18C28.2568 121.164 28.0823 121.073 27.9612 120.928L22.4345 114.34C22.1816 114.038 22.2208 113.589 22.5199 113.336C24.3361 111.802 26.2964 110.376 27.6212 109.448C27.7761 109.34 27.9701 109.297 28.1571 109.331C28.344 109.365 28.5096 109.472 28.6165 109.629L33.4809 116.724C33.7017 117.047 33.6215 117.487 33.3028 117.712C31.663 118.862 30.1638 120.005 28.9672 121.016C28.8373 121.123 28.6734 121.182 28.5061 121.182ZM23.9853 113.969L28.5969 119.466C29.7507 118.523 30.9472 117.637 31.9087 116.948L27.8508 111.03C26.7451 111.818 25.3456 112.854 23.9853 113.969Z" fill="#171717"/>
<path d="M43.6748 111.329C42.0171 111.984 40.2437 112.818 38.6715 113.651L34.6831 106.028C36.501 105.067 38.5469 104.107 40.4485 103.353L43.6748 111.329Z" fill="#079F5A"/>
<path d="M38.6713 114.365C38.6001 114.365 38.5289 114.354 38.4594 114.333C38.2778 114.276 38.1283 114.151 38.0392 113.984L34.0508 106.361C33.8692 106.013 34.0028 105.581 34.35 105.398C36.2712 104.383 38.3437 103.422 40.1848 102.691C40.548 102.546 40.9593 102.723 41.1071 103.087L44.3334 111.063C44.4046 111.239 44.4028 111.437 44.3281 111.612C44.2533 111.787 44.1108 111.924 43.9346 111.994C42.3837 112.607 40.6317 113.42 39.0025 114.281C38.8992 114.337 38.7853 114.365 38.6713 114.365ZM35.6444 106.332L38.9722 112.691C40.2275 112.047 41.5308 111.443 42.747 110.938L40.0548 104.283C38.6357 104.872 37.1098 105.579 35.6444 106.332Z" fill="#171717"/>
<path d="M55.4526 107.982C53.6952 108.29 51.7758 108.695 50.0611 109.164L47.8105 100.858C49.7852 100.318 52.0019 99.849 54.0264 99.4941L55.4526 107.982Z" fill="#079F5A"/>
<path d="M50.0612 109.88C49.9383 109.88 49.8154 109.847 49.7068 109.785C49.543 109.69 49.4219 109.535 49.3739 109.353L47.1233 101.048C47.02 100.668 47.2444 100.277 47.6236 100.172C49.9668 99.53 52.3331 99.0682 53.9053 98.7936C54.0923 98.7615 54.2846 98.8043 54.4395 98.9149C54.5944 99.0236 54.6994 99.1912 54.7297 99.3785L56.1541 107.865C56.2182 108.251 55.9601 108.617 55.5755 108.685C54.2312 108.92 52.2138 109.314 50.2499 109.853C50.1876 109.871 50.1253 109.88 50.0612 109.88ZM48.6866 101.365L50.5633 108.294C52.0358 107.916 53.4869 107.618 54.6336 107.406L53.4442 100.325C52.1212 100.57 50.419 100.917 48.6866 101.365Z" fill="#171717"/>
<path d="M267.904 45.5969H14.0716C13.6781 45.5969 13.3594 45.2779 13.3594 44.8839C13.3594 44.49 13.6781 44.1709 14.0716 44.1709H267.904C268.298 44.1709 268.616 44.49 268.616 44.8839C268.616 45.2779 268.298 45.5969 267.904 45.5969Z" fill="#079F5A"/>
<path d="M216.57 243.761H177.3V250.489H216.57V243.761Z" fill="white"/>
<path d="M216.57 251.201H177.3C176.907 251.201 176.588 250.882 176.588 250.488V243.76C176.588 243.366 176.907 243.047 177.3 243.047H216.57C216.963 243.047 217.282 243.366 217.282 243.76V250.488C217.282 250.882 216.963 251.201 216.57 251.201ZM178.012 249.775H215.858V244.473H178.012V249.775Z" fill="#079F5A"/>
<path d="M202.673 255.039H177.3V261.767H202.673V255.039Z" fill="white"/>
<path d="M202.671 262.48H177.3C176.907 262.48 176.588 262.161 176.588 261.767V255.039C176.588 254.645 176.907 254.326 177.3 254.326H202.673C203.066 254.326 203.385 254.645 203.385 255.039V261.767C203.383 262.161 203.064 262.48 202.671 262.48ZM178.012 261.054H201.96V255.753H178.012V261.054Z" fill="#079F5A"/>
<path d="M168.686 87.8631H132.235C132.06 87.8631 131.891 87.7989 131.761 87.6813L109.439 67.733H46.5379C46.1444 67.733 45.8257 67.4139 45.8257 67.0198C45.8257 66.6257 46.1444 66.3065 46.5379 66.3065H109.711C109.886 66.3065 110.055 66.3707 110.185 66.4884L132.507 86.4384H168.688C169.081 86.4384 169.4 86.7576 169.4 87.1517C169.4 87.5457 169.079 87.8631 168.686 87.8631Z" fill="#079F5A"/>
<path d="M171.172 89.7685C172.544 89.7685 173.657 88.654 173.657 87.2792C173.657 85.9044 172.544 84.7899 171.172 84.7899C169.799 84.7899 168.686 85.9044 168.686 87.2792C168.686 88.654 169.799 89.7685 171.172 89.7685Z" fill="white"/>
<path d="M171.171 90.4812C169.409 90.4812 167.974 89.0439 167.974 87.2786C167.974 85.5133 169.409 84.076 171.171 84.076C172.934 84.076 174.369 85.5133 174.369 87.2786C174.369 89.0439 172.934 90.4812 171.171 90.4812ZM171.171 85.5026C170.194 85.5026 169.398 86.2997 169.398 87.2786C169.398 88.2576 170.194 89.0546 171.171 89.0546C172.149 89.0546 172.945 88.2576 172.945 87.2786C172.945 86.2997 172.149 85.5026 171.171 85.5026Z" fill="#079F5A"/>
<path d="M102.507 83.3086H46.5379C46.1444 83.3086 45.8257 82.9895 45.8257 82.5956C45.8257 82.2016 46.1444 81.8826 46.5379 81.8826H102.509C102.902 81.8826 103.221 82.2016 103.221 82.5956C103.221 82.9895 102.901 83.3086 102.507 83.3086Z" fill="#079F5A"/>
<path d="M105.063 85.086C106.436 85.086 107.548 83.9715 107.548 82.5967C107.548 81.2219 106.436 80.1074 105.063 80.1074C103.69 80.1074 102.577 81.2219 102.577 82.5967C102.577 83.9715 103.69 85.086 105.063 85.086Z" fill="white"/>
<path d="M105.063 85.7987C103.3 85.7987 101.865 84.3614 101.865 82.5961C101.865 80.8308 103.3 79.3936 105.063 79.3936C106.825 79.3936 108.26 80.8308 108.26 82.5961C108.26 84.3614 106.825 85.7987 105.063 85.7987ZM105.063 80.8201C104.085 80.8201 103.289 81.6172 103.289 82.5961C103.289 83.5751 104.085 84.3721 105.063 84.3721C106.04 84.3721 106.836 83.5751 106.836 82.5961C106.836 81.6172 106.04 80.8201 105.063 80.8201Z" fill="#079F5A"/>
<path d="M247.638 102.714C247.504 102.714 247.369 102.676 247.248 102.598L224.749 87.8634H195.29C195.108 87.8634 194.932 87.7939 194.8 87.6673L179.187 72.8474H153.861C153.467 72.8474 153.148 72.5282 153.148 72.1342C153.148 71.7401 153.467 71.4209 153.861 71.4209H179.472C179.653 71.4209 179.83 71.4904 179.961 71.617L195.575 86.4369H224.963C225.101 86.4369 225.237 86.4779 225.353 86.5528L248.029 101.403C248.359 101.619 248.451 102.061 248.236 102.391C248.097 102.599 247.869 102.714 247.638 102.714Z" fill="#079F5A"/>
<path d="M153.859 74.6237C155.232 74.6237 156.345 73.5092 156.345 72.1344C156.345 70.7596 155.232 69.6451 153.859 69.6451C152.486 69.6451 151.374 70.7596 151.374 72.1344C151.374 73.5092 152.486 74.6237 153.859 74.6237Z" fill="white"/>
<path d="M153.859 75.3366C152.096 75.3366 150.661 73.8994 150.661 72.1341C150.661 70.3687 152.096 68.9315 153.859 68.9315C155.622 68.9315 157.057 70.3687 157.057 72.1341C157.057 73.8994 155.622 75.3366 153.859 75.3366ZM153.859 70.358C152.881 70.358 152.086 71.1551 152.086 72.1341C152.086 73.113 152.881 73.9101 153.859 73.9101C154.836 73.9101 155.632 73.113 155.632 72.1341C155.632 71.1551 154.836 70.358 153.859 70.358Z" fill="#079F5A"/>
<path d="M197.504 232.893C197.352 232.893 197.199 232.845 197.069 232.745L182.09 221.167H123.181C123.036 221.167 122.896 221.124 122.778 221.042L101.9 206.7C101.576 206.477 101.492 206.033 101.715 205.709C101.937 205.384 102.38 205.3 102.704 205.523L123.4 219.74H182.332C182.488 219.74 182.641 219.792 182.766 219.888L197.938 231.616C198.25 231.857 198.307 232.305 198.066 232.617C197.927 232.798 197.717 232.893 197.504 232.893Z" fill="#079F5A"/>
<path d="M197.506 234.669C198.878 234.669 199.991 233.554 199.991 232.18C199.991 230.805 198.878 229.69 197.506 229.69C196.133 229.69 195.02 230.805 195.02 232.18C195.02 233.554 196.133 234.669 197.506 234.669Z" fill="white"/>
<path d="M197.505 235.382C195.743 235.382 194.308 233.944 194.308 232.179C194.308 230.414 195.743 228.977 197.505 228.977C199.268 228.977 200.703 230.414 200.703 232.179C200.703 233.944 199.268 235.382 197.505 235.382ZM197.505 230.405C196.528 230.405 195.732 231.202 195.732 232.181C195.732 233.16 196.528 233.957 197.505 233.957C198.483 233.957 199.279 233.16 199.279 232.181C199.279 231.202 198.483 230.405 197.505 230.405Z" fill="#079F5A"/>
<path d="M87.8368 251.203H60.9383C60.5448 251.203 60.2261 250.884 60.2261 250.49C60.2261 250.095 60.5448 249.776 60.9383 249.776H87.648L115.006 234.051C115.115 233.988 115.236 233.956 115.36 233.956H177.3C177.693 233.956 178.012 234.275 178.012 234.669C178.012 235.063 177.693 235.383 177.3 235.383H115.549L88.1911 251.108C88.0843 251.169 87.9614 251.203 87.8368 251.203Z" fill="#079F5A"/>
<path d="M57.864 252.979C59.2368 252.979 60.3497 251.864 60.3497 250.489C60.3497 249.115 59.2368 248 57.864 248C56.4913 248 55.3784 249.115 55.3784 250.489C55.3784 251.864 56.4913 252.979 57.864 252.979Z" fill="white"/>
<path d="M57.8639 253.691C56.1011 253.691 54.666 252.254 54.666 250.489C54.666 248.723 56.1011 247.286 57.8639 247.286C59.6266 247.286 61.0617 248.723 61.0617 250.489C61.0617 252.254 59.6266 253.691 57.8639 253.691ZM57.8639 248.713C56.8863 248.713 56.0904 249.51 56.0904 250.489C56.0904 251.468 56.8863 252.265 57.8639 252.265C58.8414 252.265 59.6373 251.468 59.6373 250.489C59.6373 249.51 58.8414 248.713 57.8639 248.713Z" fill="#079F5A"/>
<path d="M17.4243 31.7422C17.4243 32.6695 16.673 33.422 15.7471 33.422C14.8212 33.422 14.0698 32.6695 14.0698 31.7422C14.0698 30.815 14.8212 30.0625 15.7471 30.0625C16.673 30.0625 17.4243 30.815 17.4243 31.7422ZM29.7599 30.0625C28.834 30.0625 28.0826 30.815 28.0826 31.7422C28.0826 32.6695 28.834 33.422 29.7599 33.422C30.6857 33.422 31.4371 32.6695 31.4371 31.7422C31.4371 30.815 30.6857 30.0625 29.7599 30.0625ZM43.7727 30.0625C42.8468 30.0625 42.0954 30.815 42.0954 31.7422C42.0954 32.6695 42.8468 33.422 43.7727 33.422C44.6985 33.422 45.4499 32.6695 45.4499 31.7422C45.4499 30.815 44.6985 30.0625 43.7727 30.0625Z" fill="white"/>
<path d="M43.7725 34.1346C42.4549 34.1346 41.383 33.0612 41.383 31.7416C41.383 30.4221 42.4549 29.3486 43.7725 29.3486C45.0901 29.3486 46.1619 30.4221 46.1619 31.7416C46.1619 33.0612 45.0901 34.1346 43.7725 34.1346ZM43.7725 30.7752C43.2401 30.7752 42.8074 31.2085 42.8074 31.7416C42.8074 32.2748 43.2401 32.7081 43.7725 32.7081C44.3048 32.7081 44.7375 32.2748 44.7375 31.7416C44.7375 31.2085 44.3048 30.7752 43.7725 30.7752ZM29.7597 34.1346C28.4421 34.1346 27.3702 33.0612 27.3702 31.7416C27.3702 30.4221 28.4421 29.3486 29.7597 29.3486C31.0773 29.3486 32.1492 30.4221 32.1492 31.7416C32.1492 33.0612 31.0773 34.1346 29.7597 34.1346ZM29.7597 30.7752C29.2273 30.7752 28.7946 31.2085 28.7946 31.7416C28.7946 32.2748 29.2273 32.7081 29.7597 32.7081C30.2921 32.7081 30.7247 32.2748 30.7247 31.7416C30.7247 31.2085 30.2921 30.7752 29.7597 30.7752ZM15.7469 34.1346C14.4293 34.1346 13.3574 33.0612 13.3574 31.7416C13.3574 30.4221 14.4293 29.3486 15.7469 29.3486C17.0645 29.3486 18.1364 30.4221 18.1364 31.7416C18.1364 33.0612 17.0645 34.1346 15.7469 34.1346ZM15.7469 30.7752C15.2145 30.7752 14.7818 31.2085 14.7818 31.7416C14.7818 32.2748 15.2145 32.7081 15.7469 32.7081C16.2793 32.7081 16.7119 32.2748 16.7119 31.7416C16.7119 31.2085 16.2793 30.7752 15.7469 30.7752Z" fill="#079F5A"/>
<path d="M220.707 171.923C228.026 163.631 230.291 151.299 226.481 140.921L233.028 138.57C237.689 151.268 234.912 166.34 225.959 176.488L220.707 171.923Z" fill="#079F5A"/>
<path d="M225.961 177.201C225.795 177.201 225.63 177.144 225.494 177.026L220.24 172.462C220.096 172.337 220.009 172.16 219.996 171.969C219.984 171.779 220.048 171.593 220.172 171.45C223.673 167.485 226.057 162.513 227.067 157.073C228.074 151.645 227.64 146.144 225.811 141.165C225.745 140.987 225.754 140.789 225.835 140.618C225.915 140.445 226.061 140.313 226.239 140.249L232.786 137.899C233.154 137.767 233.56 137.956 233.694 138.325C236.028 144.682 236.582 151.698 235.296 158.615C234.009 165.545 230.964 171.889 226.492 176.959C226.354 177.119 226.157 177.201 225.961 177.201ZM221.711 171.852L225.89 175.482C229.94 170.696 232.706 164.79 233.9 158.357C235.093 151.934 234.643 145.423 232.597 139.486L227.389 141.354C229.102 146.392 229.476 151.902 228.468 157.337C227.457 162.783 225.126 167.784 221.711 171.852Z" fill="#171717"/>
<path d="M167.212 142.435C159.839 167.472 184.054 189.88 208.398 180.636L210.913 187.13C181.111 198.43 151.559 171.044 160.551 140.429L167.212 142.435Z" fill="#079F5A"/>
<path d="M196.974 190.434C194.306 190.434 191.652 190.158 189.045 189.599C182.222 188.139 175.873 184.822 170.682 180.004C165.497 175.192 161.717 169.111 159.75 162.421C157.656 155.299 157.697 147.624 159.867 140.227C159.921 140.045 160.045 139.892 160.211 139.801C160.378 139.71 160.574 139.691 160.756 139.746L167.417 141.752C167.793 141.864 168.006 142.26 167.894 142.636C166.185 148.442 166.149 154.464 167.791 160.051C169.335 165.297 172.301 170.068 176.371 173.849C180.449 177.634 185.434 180.241 190.788 181.388C196.486 182.608 202.486 182.117 208.145 179.97C208.512 179.831 208.919 180.015 209.062 180.379L211.578 186.873C211.647 187.05 211.642 187.247 211.563 187.422C211.487 187.595 211.343 187.731 211.165 187.798C206.544 189.548 201.74 190.434 196.974 190.434ZM161.039 141.32C159.139 148.239 159.164 155.379 161.117 162.018C163.012 168.462 166.655 174.32 171.653 178.958C176.656 183.601 182.774 186.798 189.346 188.205C196.114 189.653 203.236 189.136 209.989 186.711L207.988 181.547C202.269 183.583 196.237 184.013 190.493 182.782C184.887 181.582 179.671 178.854 175.406 174.894C171.147 170.94 168.042 165.946 166.427 160.454C164.771 154.822 164.743 148.774 166.336 142.916L161.039 141.32Z" fill="#171717"/>
<path d="M151.365 152.165C151.474 162.948 155.601 173.615 162.716 181.698L157.489 186.293C149.298 177.001 144.532 164.672 144.411 152.267L151.365 152.165Z" fill="#079F5A"/>
<path d="M157.49 187.007C157.293 187.007 157.097 186.925 156.956 186.766C148.655 177.347 143.823 164.776 143.7 152.274C143.697 151.882 144.01 151.559 144.402 151.554L151.357 151.452C151.545 151.451 151.729 151.522 151.864 151.656C151.999 151.788 152.078 151.969 152.079 152.158C152.186 162.688 156.258 173.282 163.252 181.227C163.377 181.37 163.441 181.556 163.429 181.745C163.416 181.934 163.331 182.11 163.188 182.235L157.961 186.83C157.825 186.948 157.658 187.007 157.49 187.007ZM145.135 152.97C145.422 164.662 149.92 176.363 157.558 185.284L161.716 181.629C154.941 173.678 150.943 163.28 150.667 152.888L145.135 152.97Z" fill="#171717"/>
<path d="M174.212 111.807C164.894 117.2 157.564 125.953 153.995 136.133L147.439 133.806C151.549 122.082 159.992 111.991 170.725 105.78L174.212 111.807Z" fill="#079F5A"/>
<path d="M153.993 136.845C153.913 136.845 153.833 136.831 153.755 136.804L147.199 134.477C146.829 134.345 146.635 133.939 146.765 133.569C148.833 127.669 151.957 122.184 156.048 117.268C160.12 112.375 164.938 108.304 170.367 105.162C170.707 104.966 171.144 105.082 171.339 105.422L174.824 111.449C174.918 111.613 174.945 111.808 174.895 111.991C174.847 112.175 174.728 112.33 174.564 112.425C165.389 117.735 158.135 126.462 154.663 136.369C154.601 136.547 154.469 136.694 154.298 136.776C154.205 136.822 154.1 136.845 153.993 136.845ZM148.351 133.371L153.564 135.222C157.154 125.499 164.272 116.936 173.239 111.551L170.467 106.756C160.377 112.79 152.37 122.426 148.351 133.371Z" fill="#171717"/>
<path d="M220.181 130.446C213.201 122.597 202.115 118.833 191.797 120.664L190.625 113.799C203.244 111.559 216.787 116.171 225.326 125.762L220.181 130.446Z" fill="#079F5A"/>
<path d="M220.181 131.159C220.168 131.159 220.156 131.159 220.143 131.158C219.953 131.147 219.775 131.061 219.648 130.921C212.895 123.326 202.012 119.576 191.92 121.366C191.733 121.4 191.541 121.357 191.386 121.247C191.231 121.136 191.126 120.97 191.094 120.783L189.922 113.918C189.856 113.531 190.115 113.164 190.501 113.096C196.824 111.973 203.476 112.518 209.736 114.669C216.02 116.828 221.596 120.5 225.857 125.288C226.117 125.58 226.094 126.028 225.805 126.29L220.658 130.974C220.53 131.093 220.359 131.159 220.181 131.159ZM197.027 119.494C200.536 119.494 204.074 120.084 207.473 121.25C212.402 122.943 216.798 125.767 220.229 129.441L224.322 125.714C220.286 121.363 215.099 118.018 209.277 116.017C203.474 114.023 197.326 113.462 191.45 114.384L192.381 119.845C193.913 119.61 195.467 119.494 197.027 119.494Z" fill="#171717"/>
<path d="M173.089 131.48C172.45 132.27 171.841 133.08 171.256 133.911L165.504 129.993C166.03 129.224 167.155 127.734 167.75 127.017L173.089 131.48Z" fill="#079F5A"/>
<path d="M171.255 134.624C171.117 134.624 170.978 134.583 170.855 134.501L165.104 130.583C164.947 130.476 164.84 130.312 164.805 130.127C164.769 129.941 164.81 129.749 164.917 129.592C165.458 128.8 166.589 127.299 167.201 126.562C167.322 126.416 167.495 126.325 167.684 126.309C167.872 126.291 168.059 126.35 168.204 126.471L173.543 130.934C173.843 131.184 173.885 131.628 173.64 131.931C173.031 132.682 172.423 133.486 171.836 134.322C171.701 134.519 171.48 134.624 171.255 134.624ZM166.507 129.811L171.083 132.928C171.417 132.466 171.758 132.015 172.099 131.58L167.851 128.03C167.426 128.572 166.911 129.253 166.507 129.811Z" fill="#171717"/>
<path d="M222.723 133.631C222.137 132.798 221.521 131.985 220.853 131.211L226.147 126.692C226.958 127.637 227.713 128.629 228.427 129.645L222.723 133.631Z" fill="#079F5A"/>
<path d="M222.723 134.344C222.499 134.344 222.278 134.239 222.141 134.041C221.514 133.15 220.916 132.376 220.314 131.675C220.189 131.53 220.129 131.343 220.143 131.154C220.157 130.965 220.246 130.789 220.391 130.666L225.684 126.147C225.983 125.892 226.43 125.928 226.687 126.224C227.466 127.131 228.227 128.116 229.01 129.232C229.119 129.387 229.162 129.58 229.129 129.765C229.097 129.952 228.991 130.118 228.836 130.227L223.131 134.212C223.006 134.303 222.864 134.344 222.723 134.344ZM221.852 131.295C222.196 131.718 222.542 132.163 222.892 132.645L227.429 129.474C226.97 128.843 226.517 128.257 226.063 127.702L221.852 131.295Z" fill="#171717"/>
<path d="M177.977 126.769C177.175 127.401 176.392 128.06 175.653 128.767L170.879 123.701C171.78 122.841 172.731 122.035 173.71 121.267L177.977 126.769Z" fill="#079F5A"/>
<path d="M175.653 129.479C175.648 129.479 175.641 129.479 175.635 129.479C175.447 129.474 175.267 129.393 175.135 129.256L170.361 124.19C170.093 123.905 170.105 123.455 170.388 123.184C171.237 122.373 172.181 121.562 173.271 120.706C173.42 120.588 173.609 120.535 173.798 120.56C173.987 120.583 174.157 120.681 174.273 120.831L178.539 126.332C178.78 126.642 178.725 127.088 178.416 127.33C177.542 128.019 176.798 128.657 176.145 129.283C176.013 129.409 175.837 129.479 175.653 129.479ZM171.889 123.734L175.687 127.762C176.088 127.4 176.517 127.031 176.983 126.651L173.589 122.275C172.977 122.773 172.414 123.254 171.889 123.734Z" fill="#171717"/>
<path d="M183.73 123.224C182.838 123.639 181.887 124.146 181.052 124.663L177.468 118.693C178.492 118.063 179.656 117.441 180.748 116.931L183.73 123.224Z" fill="#079F5A"/>
<path d="M181.052 125.375C180.995 125.375 180.94 125.368 180.885 125.356C180.7 125.311 180.541 125.194 180.443 125.03L176.859 119.059C176.658 118.724 176.763 118.289 177.096 118.084C178.116 117.456 179.305 116.818 180.447 116.283C180.801 116.117 181.223 116.269 181.392 116.624L184.375 122.916C184.456 123.088 184.465 123.286 184.401 123.464C184.337 123.642 184.204 123.788 184.031 123.869C183.144 124.281 182.218 124.778 181.426 125.267C181.312 125.338 181.182 125.375 181.052 125.375ZM178.447 118.938L181.298 123.685C181.775 123.41 182.279 123.139 182.785 122.888L180.413 117.883C179.743 118.214 179.072 118.574 178.447 118.938Z" fill="#171717"/>
<path d="M190.007 196.734C191.435 196.944 193.01 197.128 194.444 197.208L194.04 204.162C192.393 204.07 190.573 203.859 188.931 203.617L190.007 196.734Z" fill="#079F5A"/>
<path d="M194.039 204.875C194.025 204.875 194.013 204.875 193.998 204.874C192.072 204.765 190.124 204.513 188.828 204.321C188.639 204.292 188.472 204.191 188.358 204.037C188.245 203.884 188.197 203.691 188.228 203.504L189.301 196.623C189.362 196.236 189.723 195.97 190.108 196.027C191.707 196.263 193.22 196.423 194.481 196.495C194.67 196.505 194.846 196.591 194.972 196.732C195.099 196.873 195.163 197.058 195.152 197.247L194.748 204.201C194.728 204.581 194.415 204.875 194.039 204.875ZM189.746 203.012C190.776 203.153 192.059 203.306 193.37 203.404L193.69 197.875C192.586 197.791 191.493 197.661 190.601 197.539L189.746 203.012Z" fill="#171717"/>
<path d="M180.447 194.146C181.785 194.682 183.292 195.178 184.679 195.565L182.797 202.27C181.193 201.822 179.458 201.25 177.92 200.635L180.447 194.146Z" fill="#079F5A"/>
<path d="M182.797 202.983C182.734 202.983 182.669 202.974 182.606 202.956C180.908 202.484 179.15 201.893 177.656 201.296C177.293 201.152 177.115 200.74 177.258 200.374L179.784 193.885C179.854 193.709 179.991 193.566 180.165 193.489C180.34 193.414 180.537 193.411 180.714 193.482C181.962 193.981 183.438 194.477 184.873 194.875C185.055 194.925 185.209 195.046 185.304 195.212C185.396 195.378 185.42 195.572 185.37 195.756L183.488 202.46C183.393 202.778 183.108 202.983 182.797 202.983ZM178.842 200.228C179.927 200.638 181.118 201.037 182.305 201.387L183.803 196.055C182.791 195.756 181.778 195.417 180.852 195.069L178.842 200.228Z" fill="#171717"/>
<path d="M171.658 189.561C172.863 190.358 174.218 191.187 175.486 191.865L172.203 198.004C170.741 197.223 169.176 196.265 167.789 195.347L171.658 189.561Z" fill="#079F5A"/>
<path d="M172.201 198.717C172.087 198.717 171.973 198.691 171.866 198.634C170.126 197.704 168.474 196.658 167.393 195.943C167.235 195.838 167.124 195.675 167.087 195.488C167.05 195.303 167.089 195.108 167.194 194.951L171.065 189.165C171.282 188.839 171.722 188.751 172.049 188.967C172.97 189.575 174.371 190.463 175.821 191.237C175.988 191.326 176.113 191.478 176.168 191.66C176.223 191.841 176.203 192.036 176.114 192.203L172.829 198.343C172.701 198.58 172.455 198.717 172.201 198.717ZM168.78 195.144C169.648 195.704 170.746 196.385 171.914 197.034L174.526 192.152C173.542 191.601 172.609 191.025 171.859 190.543L168.78 195.144Z" fill="#171717"/>
</svg>
