<svg width="24" height="24" viewBox="0 0 24 24" fill="none" xmlns="http://www.w3.org/2000/svg">
<path d="M5.55785 13.0976C5.41795 13.5338 4.96548 13.7694 4.54686 13.6239C4.12799 13.4784 3.90162 13.0064 4.04124 12.5698C4.02668 12.6206 4.04184 12.568 4.04184 12.568C4.05067 12.5406 4.06011 12.5135 4.06976 12.4865C4.08622 12.4404 4.10987 12.3767 4.14135 12.298C4.20424 12.1406 4.29872 11.9222 4.42991 11.6631C4.69159 11.1463 5.10365 10.459 5.70932 9.77023C6.93297 8.37876 8.93547 7 11.9947 7C15.054 7 17.0565 8.37876 18.2801 9.77023C18.8858 10.459 19.2979 11.1463 19.5595 11.6631C19.6907 11.9222 19.7852 12.1406 19.8481 12.298C19.8796 12.3767 19.9032 12.4404 19.9197 12.4865C19.9246 12.5002 19.9411 12.5875 19.957 12.6712C19.9714 12.7474 19.9853 12.8207 19.9894 12.8333C19.9894 12.8333 20.1229 13.3875 19.4426 13.6239C19.0246 13.7691 18.5729 13.5345 18.4322 13.0996L18.4316 13.0976L18.431 13.0958L18.4212 13.0679C18.4115 13.0407 18.3954 12.997 18.3722 12.939C18.3258 12.8229 18.2516 12.6507 18.1455 12.4411C17.9325 12.0204 17.5951 11.4577 17.1015 10.8964C16.1266 9.78791 14.5316 8.66667 11.9947 8.66667C9.45782 8.66667 7.86279 9.78791 6.88795 10.8964C6.39438 11.4577 6.05696 12.0204 5.84396 12.4411C5.73781 12.6507 5.66366 12.8229 5.61725 12.939C5.59408 12.997 5.57792 13.0407 5.56822 13.0679L5.55785 13.0976ZM8.79709 13.6667C8.79709 11.8257 10.2288 10.3333 11.9949 10.3333C13.761 10.3333 15.1927 11.8257 15.1927 13.6667C15.1927 15.5076 13.761 17 11.9949 17C10.2288 17 8.79709 15.5076 8.79709 13.6667Z" fill="white"/>
</svg>
