<svg width="36" height="36" viewBox="0 0 36 36" fill="none" xmlns="http://www.w3.org/2000/svg">
<path fill-rule="evenodd" clip-rule="evenodd" d="M18 4.5C14.3334 4.5 13.8744 4.5153 12.4344 4.581C10.9971 4.6467 10.0152 4.8753 9.1566 5.2092C8.2566 5.5476 7.4403 6.0786 6.7653 6.7662C6.0788 7.44042 5.54747 8.25615 5.2083 9.1566C4.8762 10.0152 4.6467 10.998 4.581 12.4353C4.5162 13.8744 4.5 14.3325 4.5 18C4.5 21.6675 4.5153 22.1256 4.581 23.5656C4.6467 25.0029 4.8753 25.9848 5.2092 26.8434C5.5476 27.7434 6.0786 28.5597 6.7662 29.2347C7.44044 29.9212 8.25616 30.4525 9.1566 30.7917C10.0152 31.1247 10.9971 31.3533 12.4344 31.419C13.8744 31.4847 14.3334 31.5 18 31.5C21.6666 31.5 22.1256 31.4847 23.5656 31.419C25.0029 31.3533 25.9848 31.1247 26.8434 30.7908C27.7434 30.4524 28.5597 29.9214 29.2347 29.2338C29.9212 28.5596 30.4525 27.7439 30.7917 26.8434C31.1247 25.9848 31.3533 25.0029 31.419 23.5656C31.4847 22.1256 31.5 21.6666 31.5 18C31.5 14.3334 31.4847 13.8744 31.419 12.4344C31.3533 10.9971 31.1247 10.0152 30.7908 9.1566C30.4519 8.25576 29.9205 7.43969 29.2338 6.7653C28.5596 6.0788 27.7439 5.54747 26.8434 5.2083C25.9848 4.8762 25.002 4.6467 23.5647 4.581C22.1256 4.5162 21.6675 4.5 18 4.5ZM18 6.9327C21.6045 6.9327 22.032 6.9462 23.4558 7.011C24.7716 7.0713 25.4862 7.29 25.9623 7.4763C26.5923 7.7202 27.0423 8.0136 27.5148 8.4852C27.9873 8.9577 28.2798 9.4077 28.5237 10.0377C28.7091 10.5138 28.9287 11.2284 28.989 12.5442C29.0538 13.968 29.0673 14.3955 29.0673 18C29.0673 21.6045 29.0538 22.032 28.989 23.4558C28.9287 24.7716 28.71 25.4862 28.5237 25.9623C28.3076 26.5487 27.9629 27.0792 27.5148 27.5148C27.0793 27.963 26.5487 28.3077 25.9623 28.5237C25.4862 28.7091 24.7716 28.9287 23.4558 28.989C22.032 29.0538 21.6054 29.0673 18 29.0673C14.3946 29.0673 13.968 29.0538 12.5442 28.989C11.2284 28.9287 10.5138 28.71 10.0377 28.5237C9.45131 28.3076 8.92081 27.9629 8.4852 27.5148C8.03716 27.0792 7.69242 26.5487 7.4763 25.9623C7.2909 25.4862 7.0713 24.7716 7.011 23.4558C6.9462 22.032 6.9327 21.6045 6.9327 18C6.9327 14.3955 6.9462 13.968 7.011 12.5442C7.0713 11.2284 7.29 10.5138 7.4763 10.0377C7.7202 9.4077 8.0136 8.9577 8.4852 8.4852C8.92075 8.03704 9.45127 7.69228 10.0377 7.4763C10.5138 7.2909 11.2284 7.0713 12.5442 7.011C13.968 6.9462 14.3955 6.9327 18 6.9327Z" fill="#171717"/>
<path fill-rule="evenodd" clip-rule="evenodd" d="M18 22.5047C17.4084 22.5047 16.8227 22.3882 16.2762 22.1618C15.7297 21.9354 15.2331 21.6036 14.8148 21.1853C14.3965 20.7671 14.0647 20.2705 13.8384 19.724C13.612 19.1775 13.4955 18.5917 13.4955 18.0002C13.4955 17.4086 13.612 16.8229 13.8384 16.2764C14.0647 15.7299 14.3965 15.2333 14.8148 14.815C15.2331 14.3967 15.7297 14.0649 16.2762 13.8386C16.8227 13.6122 17.4084 13.4957 18 13.4957C19.1946 13.4957 20.3404 13.9703 21.1851 14.815C22.0299 15.6598 22.5045 16.8055 22.5045 18.0002C22.5045 19.1948 22.0299 20.3406 21.1851 21.1853C20.3404 22.0301 19.1946 22.5047 18 22.5047ZM18 11.0612C16.1596 11.0612 14.3947 11.7922 13.0934 13.0936C11.792 14.3949 11.061 16.1598 11.061 18.0002C11.061 19.8405 11.792 21.6055 13.0934 22.9068C14.3947 24.2081 16.1596 24.9392 18 24.9392C19.8403 24.9392 21.6053 24.2081 22.9066 22.9068C24.2079 21.6055 24.939 19.8405 24.939 18.0002C24.939 16.1598 24.2079 14.3949 22.9066 13.0936C21.6053 11.7922 19.8403 11.0612 18 11.0612ZM26.9577 10.9352C26.9577 11.3702 26.7849 11.7874 26.4773 12.095C26.1696 12.4026 25.7524 12.5754 25.3174 12.5754C24.8824 12.5754 24.4652 12.4026 24.1576 12.095C23.85 11.7874 23.6772 11.3702 23.6772 10.9352C23.6772 10.5002 23.85 10.0829 24.1576 9.77534C24.4652 9.46773 24.8824 9.29492 25.3174 9.29492C25.7524 9.29492 26.1696 9.46773 26.4773 9.77534C26.7849 10.0829 26.9577 10.5002 26.9577 10.9352Z" fill="#171717"/>
</svg>
