<svg width="32" height="32" viewBox="0 0 32 32" fill="none" xmlns="http://www.w3.org/2000/svg">
<path d="M5.40003 22.4941C5.40003 19.8512 8.95816 16.1079 13.1945 16.6783C16.1354 17.0744 15.6646 20.3198 18.6056 20.7158C22.8419 21.2863 26.4 14.9 26.4 14.9M13.1945 8.06257C8.95815 7.4921 5.40003 11.2355 5.40002 13.8784L5.40003 25.453C5.40002 25.5356 5.48976 25.6 5.60044 25.6L26.1996 25.6C26.3103 25.6 26.4 25.5331 26.4 25.4505V7.03356C26.4 6.87003 26.0794 6.81551 25.9839 6.96268C24.9269 8.59124 21.9816 12.5547 18.6056 12.1001C15.6646 11.704 16.1354 8.45861 13.1945 8.06257Z" stroke="#079F5A" stroke-width="2" stroke-linecap="round"/>
</svg>
