<svg width="32" height="32" viewBox="0 0 32 32" fill="none" xmlns="http://www.w3.org/2000/svg">
<path d="M4.80005 10.2H21.4001V17.6H4.80005V10.2ZM23.4001 16.1144V9.59099L26.2001 6.55765V13.1977L23.4001 16.1144ZM9.21301 5H24.9161L21.9622 8.2H6.08403L8.91909 5.12869C8.99481 5.04666 9.10137 5 9.21301 5ZM23.4001 19.0023L26.2001 16.0856V22.6201C26.2001 22.7262 26.1579 22.8279 26.0829 22.9029L23.4001 25.5858V19.0023ZM21.4001 19.6V27H5.20005C4.97913 27 4.80005 26.8209 4.80005 26.6V19.6H21.4001Z" stroke="#079F5A" stroke-width="2"/>
<circle cx="8.2" cy="23.4002" r="1.2" fill="#079F5A"/>
<circle cx="8.2" cy="15.2" r="1.2" fill="#079F5A"/>
</svg>
