<svg width="32" height="32" viewBox="0 0 32 32" fill="none" xmlns="http://www.w3.org/2000/svg">
<circle cx="16.1" cy="15.9" r="4.1" stroke="#079F5A" stroke-width="2"/>
<circle cx="16.1" cy="4.5002" r="2.3" stroke="#079F5A" stroke-width="2"/>
<circle r="2.3" transform="matrix(1 0 0 -1 16.1 27.4998)" stroke="#079F5A" stroke-width="2"/>
<circle cx="27.5" cy="15.9001" r="2.3" transform="rotate(90 27.5 15.9001)" stroke="#079F5A" stroke-width="2"/>
<circle cx="4.5002" cy="15.9002" r="2.3" transform="rotate(-90 4.5002 15.9002)" stroke="#079F5A" stroke-width="2"/>
<path d="M16.1 6.5V12" stroke="#079F5A" stroke-width="2"/>
<path d="M16.1 25.5V20" stroke="#079F5A" stroke-width="2"/>
<path d="M25.4 15.9001L19.9 15.9001" stroke="#079F5A" stroke-width="2"/>
<path d="M6.60004 15.9001L12.1 15.9001" stroke="#079F5A" stroke-width="2"/>
<circle cx="7.939" cy="7.79761" r="2.3" transform="rotate(-45 7.939 7.79761)" stroke="#079F5A" stroke-width="2"/>
<circle r="2.3" transform="matrix(0.707107 -0.707107 -0.707107 -0.707107 24.2025 24.0611)" stroke="#079F5A" stroke-width="2"/>
<circle cx="24.061" cy="7.79776" r="2.3" transform="rotate(45 24.061 7.79776)" stroke="#079F5A" stroke-width="2"/>
<circle cx="7.79761" cy="24.0611" r="2.3" transform="rotate(-135 7.79761 24.0611)" stroke="#079F5A" stroke-width="2"/>
<path d="M9.35321 9.21191L13.2423 13.101" stroke="#079F5A" stroke-width="2"/>
<path d="M22.7883 22.647L18.8992 18.7579" stroke="#079F5A" stroke-width="2"/>
<path d="M22.5761 9.28247L18.687 13.1716" stroke="#079F5A" stroke-width="2"/>
<path d="M9.28253 22.5762L13.1716 18.6871" stroke="#079F5A" stroke-width="2"/>
</svg>
