<svg width="32" height="32" viewBox="0 0 32 32" fill="none" xmlns="http://www.w3.org/2000/svg">
<circle cx="16.1" cy="15.9" r="4.1" stroke="#079F5A" stroke-width="2"/>
<circle cx="16.1" cy="4.5002" r="2.3" stroke="#079F5A" stroke-width="2"/>
<circle r="2.3" transform="matrix(1 0 0 -1 16.0998 27.4998)" stroke="#079F5A" stroke-width="2"/>
<circle cx="25.9594" cy="21.6503" r="2.3" transform="rotate(120 25.9594 21.6503)" stroke="#079F5A" stroke-width="2"/>
<circle cx="6.04084" cy="10.15" r="2.3" transform="rotate(-60 6.04084 10.15)" stroke="#079F5A" stroke-width="2"/>
<path d="M16.1001 6.5V12" stroke="#079F5A" stroke-width="2"/>
<path d="M16.1001 25.5V20" stroke="#079F5A" stroke-width="2"/>
<path d="M24.1406 20.6001L19.3775 17.8501" stroke="#079F5A" stroke-width="2"/>
<path d="M7.85938 11.2L12.6225 13.95" stroke="#079F5A" stroke-width="2"/>
<circle cx="25.8886" cy="10.1793" r="2.3" transform="rotate(60 25.8886 10.1793)" stroke="#079F5A" stroke-width="2"/>
<circle cx="5.97009" cy="21.6791" r="2.3" transform="rotate(-120 5.97009 21.6791)" stroke="#079F5A" stroke-width="2"/>
<path d="M24.0698 11.2295L19.3067 13.9795" stroke="#079F5A" stroke-width="2"/>
<path d="M7.78857 20.6294L12.5517 17.8794" stroke="#079F5A" stroke-width="2"/>
</svg>
