<svg width="32" height="32" viewBox="0 0 32 32" fill="none" xmlns="http://www.w3.org/2000/svg">
<path d="M22.9211 4.40039C21.0927 4.40039 19.612 5.96759 19.612 7.77883C18.6787 8.06225 18 8.92269 18 9.94016C18 11.1885 19.0215 12.2004 20.2816 12.2004H25.3816C26.3211 12.1561 28.2 11.5533 28.2 9.49698C28.2 8.20482 27.3139 7.11768 26.1109 6.79931C25.7225 5.41574 24.4415 4.40039 22.9211 4.40039Z" stroke="#079F5A" stroke-width="2" stroke-linecap="round"/>
<path d="M8.52115 19.5996C6.6928 19.5996 5.2121 21.1668 5.2121 22.978C4.27875 23.2615 3.6001 24.1219 3.6001 25.1394C3.6001 26.3877 4.6216 27.3996 5.88168 27.3996H10.9817C11.9211 27.3553 13.8001 26.7526 13.8001 24.6962C13.8001 23.404 12.914 22.3169 11.711 21.9985C11.3226 20.615 10.0416 19.5996 8.52115 19.5996Z" stroke="#079F5A" stroke-width="2" stroke-linecap="round"/>
<path d="M5.6001 14.3998V8.49533C5.6001 8.21177 5.89248 7.9819 6.25316 7.9819L7.55928 7.98189L13.6001 7.98189M13.6001 7.98189L10.8246 5.79981M13.6001 7.98189L10.8246 10.164" stroke="#079F5A" stroke-width="2" stroke-linecap="round"/>
<path d="M26.3999 17.6002V23.5047C26.3999 23.7882 26.1075 24.0181 25.7468 24.0181L24.4407 24.0181L18.3999 24.0181M18.3999 24.0181L21.1754 26.2002M18.3999 24.0181L21.1754 21.836" stroke="#079F5A" stroke-width="2" stroke-linecap="round"/>
</svg>
