<svg width="32" height="32" viewBox="0 0 32 32" fill="none" xmlns="http://www.w3.org/2000/svg">
<path d="M22.9211 4.40015C21.0927 4.40015 19.612 5.96734 19.612 7.77859C18.6787 8.062 18 8.92245 18 9.93992C18 11.1882 19.0215 12.2001 20.2816 12.2001H25.3816C26.3211 12.1558 28.2 11.5531 28.2 9.49674C28.2 8.20458 27.3139 7.11744 26.1109 6.79907C25.7225 5.4155 24.4415 4.40015 22.9211 4.40015Z" stroke="#079F5A" stroke-width="2" stroke-linecap="round"/>
<path d="M8.52115 19.6001C6.6928 19.6001 5.2121 21.1673 5.2121 22.9785C4.27875 23.262 3.6001 24.1224 3.6001 25.1399C3.6001 26.3882 4.6216 27.4001 5.88168 27.4001H10.9817C11.9211 27.3558 13.8001 26.7531 13.8001 24.6967C13.8001 23.4045 12.914 22.3174 11.711 21.999C11.3226 20.6154 10.0416 19.6001 8.52115 19.6001Z" stroke="#079F5A" stroke-width="2" stroke-linecap="round"/>
<path d="M5.6001 14.4V8.49558C5.6001 8.21202 5.89248 7.98215 6.25316 7.98215L7.55928 7.98214L13.6001 7.98214M13.6001 7.98214L10.8246 5.80006M13.6001 7.98214L10.8246 10.1642" stroke="#079F5A" stroke-width="2" stroke-linecap="round"/>
<path d="M26.3999 17.6002V23.5047C26.3999 23.7882 26.1075 24.0181 25.7468 24.0181L24.4407 24.0181L18.3999 24.0181M18.3999 24.0181L21.1754 26.2002M18.3999 24.0181L21.1754 21.836" stroke="#079F5A" stroke-width="2" stroke-linecap="round"/>
</svg>
