<svg width="32" height="32" viewBox="0 0 32 32" fill="none" xmlns="http://www.w3.org/2000/svg">
<path d="M5.39991 22.4941C5.39991 19.8512 8.95804 16.1079 13.1943 16.6783C16.1353 17.0744 15.6645 20.3198 18.6055 20.7158C22.8418 21.2863 26.3999 14.9 26.3999 14.9M13.1943 8.06257C8.95803 7.4921 5.3999 11.2355 5.3999 13.8784L5.3999 25.453C5.3999 25.5356 5.48963 25.6 5.60032 25.6L26.1995 25.6C26.3102 25.6 26.3999 25.5331 26.3999 25.4505V7.03356C26.3999 6.87003 26.0793 6.81551 25.9838 6.96268C24.9267 8.59124 21.9814 12.5547 18.6055 12.1001C15.6645 11.704 16.1353 8.45861 13.1943 8.06257Z" stroke="#079F5A" stroke-width="2" stroke-linecap="round"/>
</svg>
