<svg width="32" height="32" viewBox="0 0 32 32" fill="none" xmlns="http://www.w3.org/2000/svg">
<path d="M4.7998 10.2H21.3998V17.6H4.7998V10.2ZM23.3998 16.1144V9.59099L26.1998 6.55765V13.1977L23.3998 16.1144ZM9.21277 5H24.9158L21.962 8.2H6.08379L8.91885 5.12869C8.99457 5.04666 9.10113 5 9.21277 5ZM23.3998 19.0023L26.1998 16.0856V22.6201C26.1998 22.7262 26.1577 22.8279 26.0827 22.9029L23.3998 25.5858V19.0023ZM21.3998 19.6V27H5.19981C4.97889 27 4.7998 26.8209 4.7998 26.6V19.6H21.3998Z" stroke="#079F5A" stroke-width="2"/>
<circle cx="8.2" cy="23.4002" r="1.2" fill="#079F5A"/>
<circle cx="8.2" cy="15.2" r="1.2" fill="#079F5A"/>
</svg>
