<svg width="32" height="32" viewBox="0 0 32 32" fill="none" xmlns="http://www.w3.org/2000/svg">
<path d="M22.9211 4.40015C21.0927 4.40015 19.612 5.96734 19.612 7.77859C18.6787 8.062 18 8.92245 18 9.93992C18 11.1882 19.0215 12.2001 20.2816 12.2001H25.3816C26.3211 12.1558 28.2 11.5531 28.2 9.49674C28.2 8.20458 27.3139 7.11744 26.1109 6.79907C25.7225 5.4155 24.4415 4.40015 22.9211 4.40015Z" stroke="#079F5A" stroke-width="2" stroke-linecap="round"/>
<path d="M8.52103 19.6001C6.69267 19.6001 5.21198 21.1673 5.21198 22.9785C4.27863 23.262 3.59998 24.1224 3.59998 25.1399C3.59998 26.3882 4.62147 27.4001 5.88155 27.4001H10.9816C11.921 27.3558 13.8 26.7531 13.8 24.6967C13.8 23.4045 12.9139 22.3174 11.7108 21.999C11.3225 20.6154 10.0414 19.6001 8.52103 19.6001Z" stroke="#079F5A" stroke-width="2" stroke-linecap="round"/>
<path d="M5.59998 14.4V8.49558C5.59998 8.21202 5.89236 7.98215 6.25304 7.98215L7.55916 7.98214L13.6 7.98214M13.6 7.98214L10.8245 5.80006M13.6 7.98214L10.8245 10.1642" stroke="#079F5A" stroke-width="2" stroke-linecap="round"/>
<path d="M26.4 17.6002V23.5047C26.4 23.7882 26.1076 24.0181 25.747 24.0181L24.4408 24.0181L18.4 24.0181M18.4 24.0181L21.1755 26.2002M18.4 24.0181L21.1755 21.836" stroke="#079F5A" stroke-width="2" stroke-linecap="round"/>
</svg>
