<svg width="32" height="32" viewBox="0 0 32 32" fill="none" xmlns="http://www.w3.org/2000/svg">
<circle cx="16.1" cy="15.8998" r="4.1" stroke="#079F5A" stroke-width="2"/>
<circle cx="16.0998" cy="4.5002" r="2.3" stroke="#079F5A" stroke-width="2"/>
<circle r="2.3" transform="matrix(1 0 0 -1 16.0998 27.4998)" stroke="#079F5A" stroke-width="2"/>
<circle cx="27.4998" cy="15.9006" r="2.3" transform="rotate(90 27.4998 15.9006)" stroke="#079F5A" stroke-width="2"/>
<circle cx="4.5002" cy="15.9002" r="2.3" transform="rotate(-90 4.5002 15.9002)" stroke="#079F5A" stroke-width="2"/>
<path d="M16.1001 6.5V12" stroke="#079F5A" stroke-width="2"/>
<path d="M16.1001 25.5V20" stroke="#079F5A" stroke-width="2"/>
<path d="M25.3999 15.9004L19.8999 15.9004" stroke="#079F5A" stroke-width="2"/>
<path d="M6.6001 15.9004L12.1001 15.9004" stroke="#079F5A" stroke-width="2"/>
<circle cx="7.93888" cy="7.79785" r="2.3" transform="rotate(-45 7.93888 7.79785)" stroke="#079F5A" stroke-width="2"/>
<circle r="2.3" transform="matrix(0.707107 -0.707107 -0.707107 -0.707107 24.2026 24.0606)" stroke="#079F5A" stroke-width="2"/>
<circle cx="24.061" cy="7.79776" r="2.3" transform="rotate(45 24.061 7.79776)" stroke="#079F5A" stroke-width="2"/>
<circle cx="7.79736" cy="24.0606" r="2.3" transform="rotate(-135 7.79736 24.0606)" stroke="#079F5A" stroke-width="2"/>
<path d="M9.35303 9.21191L13.2421 13.101" stroke="#079F5A" stroke-width="2"/>
<path d="M22.7881 22.6465L18.899 18.7574" stroke="#079F5A" stroke-width="2"/>
<path d="M22.5762 9.28223L18.6871 13.1713" stroke="#079F5A" stroke-width="2"/>
<path d="M9.28271 22.5762L13.1718 18.6871" stroke="#079F5A" stroke-width="2"/>
</svg>
