<svg width="32" height="32" viewBox="0 0 32 32" fill="none" xmlns="http://www.w3.org/2000/svg">
<circle cx="16.1" cy="15.8998" r="4.1" stroke="#079F5A" stroke-width="2"/>
<circle cx="16.0998" cy="4.5002" r="2.3" stroke="#079F5A" stroke-width="2"/>
<circle r="2.3" transform="matrix(1 0 0 -1 16.0998 27.4998)" stroke="#079F5A" stroke-width="2"/>
<circle cx="25.9594" cy="21.6503" r="2.3" transform="rotate(120 25.9594 21.6503)" stroke="#079F5A" stroke-width="2"/>
<circle cx="6.0406" cy="10.1505" r="2.3" transform="rotate(-60 6.0406 10.1505)" stroke="#079F5A" stroke-width="2"/>
<path d="M16.1001 6.5V12" stroke="#079F5A" stroke-width="2"/>
<path d="M16.1001 25.5V20" stroke="#079F5A" stroke-width="2"/>
<path d="M24.1406 20.5996L19.3775 17.8496" stroke="#079F5A" stroke-width="2"/>
<path d="M7.85938 11.2002L12.6225 13.9502" stroke="#079F5A" stroke-width="2"/>
<circle cx="25.8888" cy="10.1798" r="2.3" transform="rotate(60 25.8888 10.1798)" stroke="#079F5A" stroke-width="2"/>
<circle cx="5.97009" cy="21.6796" r="2.3" transform="rotate(-120 5.97009 21.6796)" stroke="#079F5A" stroke-width="2"/>
<path d="M24.0698 11.2295L19.3067 13.9795" stroke="#079F5A" stroke-width="2"/>
<path d="M7.78857 20.6289L12.5517 17.8789" stroke="#079F5A" stroke-width="2"/>
</svg>
