<svg width="158" height="43" viewBox="0 0 158 43" fill="none" xmlns="http://www.w3.org/2000/svg">
<path d="M30.5024 37.3187L30.0515 37.5986C26.9661 39.5733 23.382 40.6278 19.7188 40.6386C8.83421 40.6386 0.00210138 31.5343 0.00210138 20.2998C-0.0747536 14.9935 1.95925 9.87381 5.65676 6.06696C9.35427 2.2601 14.4125 0.07779 19.7188 0C30.5568 0 39.4356 9.09645 39.4356 20.2765C39.4309 22.9751 38.9028 25.6471 37.8806 28.1446L32.1507 21.4039V21.1162L32.2051 20.5564V20.2765C32.0833 17.8259 31.2449 15.465 29.7938 13.4865C28.3427 11.508 26.3428 9.9989 24.042 9.14642C21.7413 8.29395 19.2409 8.13555 16.851 8.6909C14.4611 9.24624 12.2867 10.4909 10.5976 12.2705C8.90841 14.0501 7.77878 16.2863 7.34875 18.702C6.91872 21.1176 7.2072 23.6063 8.17843 25.8595C9.14966 28.1127 10.7609 30.0313 12.8124 31.3773C14.8638 32.7233 17.2652 33.4375 19.7188 33.4314C21.6315 33.4563 23.5212 33.0133 25.2234 32.1408L25.8376 31.7987L21.9502 27.196L27.3925 22.5856L39.9176 37.4198L34.4753 42.0225L30.5024 37.3187Z" fill="#079F5A"/>
<path d="M60.3883 21.5126C61.2623 21.4824 62.1335 21.6285 62.9498 21.9421C63.7662 22.2557 64.5111 22.7305 65.1401 23.3381C65.769 23.9457 66.2693 24.6738 66.6109 25.4788C66.9525 26.2838 67.1286 27.1494 67.1286 28.024C67.1286 28.8985 66.9525 29.7641 66.6109 30.5691C66.2693 31.3742 65.769 32.1022 65.1401 32.7098C64.5111 33.3174 63.7662 33.7922 62.9498 34.1058C62.1335 34.4194 61.2623 34.5655 60.3883 34.5353H46.3394V30.1348H60.4117C60.6848 30.1396 60.9562 30.0898 61.2098 29.9883C61.4635 29.8869 61.6943 29.7358 61.8889 29.5439C62.0861 29.3539 62.2424 29.1255 62.348 28.8728C62.4537 28.6201 62.5064 28.3484 62.5031 28.0745C62.5051 27.7959 62.4519 27.5196 62.3464 27.2616C62.241 27.0037 62.0854 26.7692 61.8887 26.5718C61.6921 26.3744 61.4582 26.218 61.2006 26.1116C60.9431 26.0052 60.667 25.951 60.3883 25.952H51.9372C50.2134 25.952 48.5601 25.2672 47.3412 24.0483C46.1223 22.8294 45.4375 21.1761 45.4375 19.4523C45.4416 17.7298 46.1277 16.0789 47.3457 14.8609C48.5638 13.6428 50.2146 12.9567 51.9372 12.9526H66.0328V17.3609H51.9372C51.6627 17.3568 51.3903 17.4085 51.1364 17.5127C50.8825 17.617 50.6524 17.7716 50.46 17.9673C50.263 18.1612 50.1066 18.3924 49.9998 18.6473C49.893 18.9023 49.838 19.1759 49.838 19.4523C49.838 19.7287 49.893 20.0024 49.9998 20.2573C50.1066 20.5122 50.263 20.7434 50.46 20.9373C50.6524 21.133 50.8825 21.2877 51.1364 21.3919C51.3903 21.4962 51.6627 21.5478 51.9372 21.5437H60.3883V21.5126Z" fill="#171717"/>
<path d="M90.7568 12.9528C92.9564 12.961 95.0632 13.84 96.6163 15.3976C98.1695 16.9551 99.0426 19.0644 99.0446 21.264V34.5355H94.6364V21.264C94.6364 20.233 94.2268 19.2442 93.4978 18.5152C92.7687 17.7862 91.78 17.3766 90.749 17.3766C89.718 17.3766 88.7292 17.7862 88.0002 18.5152C87.2712 19.2442 86.8616 20.233 86.8616 21.264V34.5355H82.4533V21.264C82.4533 20.2278 82.0417 19.2341 81.3091 18.5015C80.5764 17.7688 79.5827 17.3572 78.5465 17.3572C77.5104 17.3572 76.5167 17.7688 75.784 18.5015C75.0513 19.2341 74.6397 20.2278 74.6397 21.264V34.5355H70.2314V21.264C70.2355 19.5924 70.7425 17.9607 71.6866 16.5812C72.6307 15.2017 73.9681 14.1383 75.5249 13.5294C77.0816 12.9204 78.7856 12.7941 80.4151 13.1669C82.0446 13.5397 83.5242 14.3943 84.6614 15.6195C85.4262 14.7633 86.3666 14.0819 87.4184 13.6218C88.4702 13.1616 89.6088 12.9334 90.7568 12.9528V12.9528Z" fill="#171717"/>
<path d="M113.14 12.9215C115.053 12.9019 116.936 13.4074 118.582 14.3831C120.182 15.3341 121.518 16.6705 122.469 18.2705C123.443 19.9175 123.945 21.7999 123.923 23.7128V34.5042H113.202C111.289 34.5261 109.407 34.0232 107.759 33.0503C106.138 32.0971 104.786 30.7457 103.833 29.124C102.872 27.4714 102.365 25.5936 102.365 23.6817C102.365 21.7698 102.872 19.892 103.833 18.2394C104.782 16.6378 106.119 15.3009 107.721 14.352C109.362 13.3891 111.236 12.8944 113.14 12.9215V12.9215ZM119.554 30.1347V23.7439C119.552 22.4821 119.177 21.2491 118.475 20.2006C117.773 19.1521 116.776 18.3352 115.61 17.853C114.444 17.3709 113.161 17.2451 111.923 17.4917C110.686 17.7382 109.549 18.346 108.657 19.2382C107.765 20.1304 107.157 21.267 106.911 22.5045C106.664 23.742 106.79 25.0247 107.272 26.1908C107.754 27.3568 108.571 28.3538 109.62 29.0558C110.668 29.7577 111.901 30.1332 113.163 30.1347H119.554Z" fill="#171717"/>
<path d="M127.259 23.7753C127.241 21.862 127.747 19.9802 128.72 18.333C129.665 16.728 131.003 15.3902 132.608 14.4456C134.254 13.4699 136.136 12.9644 138.05 12.9839C138.492 12.9928 138.934 13.0291 139.372 13.0928C139.904 13.1707 140.426 13.309 140.927 13.5049L139.372 17.6332C139.14 17.5401 138.897 17.4774 138.649 17.4467C138.443 17.4143 138.235 17.3961 138.027 17.3922C136.326 17.3943 134.696 18.0707 133.493 19.2732C132.291 20.4756 131.614 22.1059 131.612 23.8064V34.5666H127.204L127.259 23.7753Z" fill="#171717"/>
<path d="M155.092 30.1349C155.3 30.1274 155.508 30.1092 155.714 30.0805C155.965 30.0472 156.211 29.9819 156.445 29.8861L158 34.0145C157.5 34.2148 156.978 34.3532 156.445 34.4266C156.007 34.4945 155.566 34.5308 155.123 34.5354C153.21 34.5574 151.328 34.0545 149.681 33.0816C148.075 32.121 146.738 30.7705 145.793 29.1553C144.82 27.5082 144.318 25.6259 144.34 23.713V7.44824H148.74V12.7351H155.652V17.1045H148.74V23.6897C148.75 25.3877 149.429 27.0132 150.63 28.2139C151.831 29.4146 153.456 30.0936 155.154 30.1038L155.092 30.1349Z" fill="#171717"/>
</svg>
