<svg width="24" height="24" viewBox="0 0 24 24" fill="none" xmlns="http://www.w3.org/2000/svg">
<path d="M21 6.21429C21 7.98949 19.5609 9.42857 17.7857 9.42857C16.759 9.42857 15.8447 8.94719 15.2563 8.19782L9.31939 11.1663C9.3906 11.4322 9.42857 11.7116 9.42857 12C9.42857 12.2884 9.39059 12.5679 9.31935 12.8339L15.2562 15.8023C15.8446 15.0529 16.759 14.5714 17.7857 14.5714C19.5609 14.5714 21 16.0105 21 17.7857C21 19.5609 19.5609 21 17.7857 21C16.0105 21 14.5714 19.5609 14.5714 17.7857C14.5714 17.4974 14.6094 17.2179 14.6806 16.952L8.74374 13.9835C8.15528 14.7329 7.241 15.2143 6.21429 15.2143C4.43908 15.2143 3 13.7752 3 12C3 10.2248 4.43908 8.78571 6.21429 8.78571C7.24105 8.78571 8.15536 9.26714 8.74382 10.0166L14.6806 7.04815C14.6094 6.78222 14.5714 6.50269 14.5714 6.21429C14.5714 4.43908 16.0105 3 17.7857 3C19.5609 3 21 4.43908 21 6.21429Z" fill="white"/>
</svg>
