<svg width="375" height="38" viewBox="0 0 375 38" fill="none" xmlns="http://www.w3.org/2000/svg">
<rect width="375" height="38" fill="#171717"/>
<path opacity="0.35" d="M336.5 20.0006C336.5 18.804 337.47 17.834 338.667 17.834H355.333C356.53 17.834 357.5 18.804 357.5 20.0007V26.0007C357.5 27.1973 356.53 28.1673 355.333 28.1673H338.667C337.47 28.1673 336.5 27.1973 336.5 26.0007V20.0006Z" stroke="white"/>
<path opacity="0.4" d="M359 21.001V25.001C359.805 24.6622 360.328 23.8741 360.328 23.001C360.328 22.1278 359.805 21.3398 359 21.001Z" fill="white"/>
<path d="M338 20.6673C338 19.9309 338.597 19.334 339.333 19.334H354.667C355.403 19.334 356 19.9309 356 20.6673V25.334C356 26.0704 355.403 26.6673 354.667 26.6673H339.333C338.597 26.6673 338 26.0704 338 25.334V20.6673Z" fill="white"/>
<path fill-rule="evenodd" clip-rule="evenodd" d="M323.332 19.6084C325.548 19.6085 327.679 20.4599 329.285 21.9867C329.406 22.1046 329.599 22.1031 329.718 21.9834L330.874 20.8167C330.935 20.756 330.968 20.6737 330.968 20.5882C330.967 20.5026 330.933 20.4207 330.872 20.3607C326.656 16.3212 320.007 16.3212 315.792 20.3607C315.731 20.4207 315.696 20.5025 315.695 20.5881C315.695 20.6737 315.728 20.7559 315.789 20.8167L316.945 21.9834C317.064 22.1033 317.257 22.1048 317.378 21.9867C318.984 20.4598 321.116 19.6084 323.332 19.6084ZM323.333 23.404C324.55 23.404 325.724 23.8565 326.627 24.6737C326.749 24.7897 326.941 24.7872 327.06 24.668L328.215 23.5014C328.276 23.4402 328.309 23.3572 328.308 23.2709C328.307 23.1846 328.272 23.1023 328.21 23.0424C325.462 20.486 321.206 20.486 318.458 23.0424C318.396 23.1023 318.36 23.1847 318.359 23.271C318.359 23.3573 318.392 23.4403 318.453 23.5014L319.608 24.668C319.727 24.7872 319.919 24.7897 320.041 24.6737C320.943 23.857 322.116 23.4045 323.333 23.404ZM325.646 25.9575C325.648 26.044 325.614 26.1274 325.552 26.188L323.554 28.2037C323.496 28.2629 323.416 28.2963 323.333 28.2963C323.249 28.2963 323.17 28.2629 323.111 28.2037L321.113 26.188C321.052 26.1274 321.018 26.044 321.02 25.9575C321.021 25.8709 321.059 25.789 321.123 25.731C322.399 24.6522 324.267 24.6522 325.542 25.731C325.607 25.7891 325.644 25.871 325.646 25.9575Z" fill="white"/>
<path fill-rule="evenodd" clip-rule="evenodd" d="M309.668 17.667H308.668C308.116 17.667 307.668 18.1147 307.668 18.667V27.3337C307.668 27.8859 308.116 28.3337 308.668 28.3337H309.668C310.22 28.3337 310.668 27.8859 310.668 27.3337V18.667C310.668 18.1147 310.22 17.667 309.668 17.667ZM304 20H305C305.552 20 306 20.4477 306 21V27.3333C306 27.8856 305.552 28.3333 305 28.3333H304C303.448 28.3333 303 27.8856 303 27.3333V21C303 20.4477 303.448 20 304 20ZM300.336 22.334H299.336C298.784 22.334 298.336 22.7817 298.336 23.334V27.334C298.336 27.8863 298.784 28.334 299.336 28.334H300.336C300.888 28.334 301.336 27.8863 301.336 27.334V23.334C301.336 22.7817 300.888 22.334 300.336 22.334ZM295.668 24.334H294.668C294.116 24.334 293.668 24.7817 293.668 25.334V27.334C293.668 27.8863 294.116 28.334 294.668 28.334H295.668C296.22 28.334 296.668 27.8863 296.668 27.334V25.334C296.668 24.7817 296.22 24.334 295.668 24.334Z" fill="white"/>
<path d="M37.3203 28.2568C40.0083 28.2568 41.605 26.1548 41.605 22.5952C41.605 21.2549 41.3486 20.127 40.8579 19.2554C40.1475 17.9004 38.9243 17.168 37.3789 17.168C35.0791 17.168 33.4531 18.7134 33.4531 20.8813C33.4531 22.9175 34.918 24.397 36.9321 24.397C38.1699 24.397 39.1733 23.8184 39.6714 22.8149H39.6934C39.6934 22.8149 39.7227 22.8149 39.73 22.8149C39.7446 22.8149 39.7959 22.8149 39.7959 22.8149C39.7959 25.2319 38.8804 26.6748 37.335 26.6748C36.4268 26.6748 35.7236 26.1768 35.4819 25.3784H33.5996C33.9146 27.1143 35.3867 28.2568 37.3203 28.2568ZM37.3862 22.8955C36.1704 22.8955 35.3062 22.0312 35.3062 20.8228C35.3062 19.6436 36.2144 18.7427 37.3936 18.7427C38.5728 18.7427 39.481 19.6582 39.481 20.8521C39.481 22.0312 38.5947 22.8955 37.3862 22.8955Z" fill="white"/>
<path d="M44.6961 28.1543C45.3919 28.1543 45.868 27.6562 45.868 26.9971C45.868 26.3306 45.3919 25.8398 44.6961 25.8398C44.0076 25.8398 43.5242 26.3306 43.5242 26.9971C43.5242 27.6562 44.0076 28.1543 44.6961 28.1543ZM44.6961 22.6611C45.3919 22.6611 45.868 22.1704 45.868 21.5112C45.868 20.8447 45.3919 20.354 44.6961 20.354C44.0076 20.354 43.5242 20.8447 43.5242 21.5112C43.5242 22.1704 44.0076 22.6611 44.6961 22.6611Z" fill="white"/>
<path d="M52.7237 28.0005H54.5328V26.0303H55.961V24.4336H54.5328V17.4316H51.8668C49.9991 20.2441 48.5123 22.5952 47.5602 24.3457V26.0303H52.7237V28.0005ZM49.3106 24.3677C50.5411 22.1997 51.6397 20.4639 52.6505 18.9697H52.753V24.4775H49.3106V24.3677Z" fill="white"/>
<path d="M59.9896 28.0005H61.8793V17.4316H59.997L57.2357 19.3652V21.1816L59.8651 19.3359H59.9896V28.0005Z" fill="white"/>
</svg>
